<?xml version="1.0" encoding="utf-8"?>
<!-- Generator: Adobe Illustrator 16.0.4, SVG Export Plug-In . SVG Version: 6.00 Build 0)  -->
<!DOCTYPE svg PUBLIC "-//W3C//DTD SVG 1.1//EN" "http://www.w3.org/Graphics/SVG/1.1/DTD/svg11.dtd">
<svg version="1.1"
	 id="svg13371" xmlns:dc="http://purl.org/dc/elements/1.1/" xmlns:cc="http://web.resource.org/cc/" xmlns:rdf="http://www.w3.org/1999/02/22-rdf-syntax-ns#" xmlns:svg="http://www.w3.org/2000/svg" xmlns:sodipodi="http://sodipodi.sourceforge.net/DTD/sodipodi-0.dtd" xmlns:inkscape="http://www.inkscape.org/namespaces/inkscape" inkscape:export-xdpi="90" inkscape:version="0.45.1" inkscape:export-filename="/Users/lindberg/Projects/Wiki/seals/HHSLogo.png" sodipodi:docbase="/Users/lindberg/Projects/Wiki/seals" inkscape:export-ydpi="90" inkscape:output_extension="org.inkscape.output.svg.inkscape" sodipodi:docname="HHSLogo2.svg" sodipodi:version="0.32"
	 xmlns="http://www.w3.org/2000/svg" xmlns:xlink="http://www.w3.org/1999/xlink" x="0px" y="0px" width="69.999px" height="70px"
	 viewBox="252.991 253 69.999 70" enable-background="new 252.991 253 69.999 70" xml:space="preserve">
<g id="g24551">
	<path id="path16297" fill="#646569" d="M318.235,266.304v0.01l-0.01,0.019l-0.019,0.029l-0.02,0.038l-0.028,0.058l-0.038,0.057
		l-0.048,0.077l-0.047,0.076l-0.058,0.095l-0.066,0.096l-0.076,0.104l-0.076,0.124l-0.086,0.114l-0.096,0.134l-0.095,0.133
		l-0.105,0.143l-0.113,0.152l-0.124,0.153l-0.124,0.152l-0.133,0.162l-0.144,0.162l-0.144,0.171l-0.151,0.171l-0.162,0.181
		l-0.171,0.171l-0.172,0.181l-0.181,0.181l-0.191,0.181l-0.189,0.181l-0.2,0.181l-0.209,0.171l-0.22,0.181
		c-1.667,1.362-20.731,13.066-21.665,13.809c-0.943,0.733-2.657,2.705-4.057,8.515c-1.134,4.686-1.867,2.933-5.61,2.789
		c-2.19-0.085-8.266-1.685-7.8,3.01c0,0,0.753-1.048,9.048,0.066c3.267,0.448,5.934-0.618,6.704-3.076
		c0.771-2.495,1.896-6.732,3.581-8.961c0.781-1.028,16.057-10.418,20.266-12.923C316.74,272.665,321.673,269.685,318.235,266.304z"
		/>
	<path id="path16299" fill="#646569" d="M270.314,301.616L270.314,301.616l0.019-0.01l0.019-0.009l0.02-0.02l0.038-0.019
		l0.038-0.028l0.057-0.028l0.057-0.021l0.067-0.028l0.076-0.038l0.085-0.029l0.096-0.027l0.095-0.02l0.115-0.027l0.124-0.021
		l0.124-0.018l0.143-0.02l0.152-0.01l0.162-0.01h0.162l0.181,0.01l0.19,0.01l0.2,0.02l0.105,0.018l0.114,0.021l0.105,0.009
		l0.114,0.028l0.115,0.02l0.114,0.018l0.124,0.029l0.124,0.038l0.124,0.028l0.133,0.038l0.124,0.039l0.143,0.038l0.133,0.047
		l0.143,0.048l0.143,0.048l0.143,0.057l0.152,0.049l0.152,0.065c3.267,1.324,11.895,5.219,14.181,6.896
		c1.399,1.029,5.305,2.79,4.209,4.704c-1.096,1.905-6.39,2.791-5.305,6.895c1.096,4.113,6.865,2.353,7.646,1.325
		c0.772-1.029-2.571,0.6-3.742-2.344c-0.934-2.353,0.695-3.914,2.961-5.438c1.087-0.733,2.563-1.324,2.335-3.229
		c-0.153-1.322-2.485-2.352-4.829-3.665c-2.343-1.325-11.38-5.581-14.971-7.2C273.742,298.244,269.847,298.826,270.314,301.616z"/>
	<path id="path16301" fill="#646569" d="M321.749,271.275l-0.076,0.152l-0.085,0.152l-0.086,0.162l-0.085,0.171l-0.096,0.181
		l-0.048,0.085l-0.058,0.095l-0.056,0.095l-0.058,0.095l-0.066,0.096l-0.067,0.095l-0.067,0.105l-0.076,0.095l-0.086,0.104
		l-0.075,0.105l-0.096,0.096l-0.095,0.113l-0.104,0.105l-0.104,0.104l-0.114,0.105l-0.115,0.114l-0.133,0.105l-0.134,0.114
		l-0.143,0.114l-0.143,0.115l-0.162,0.104l-0.162,0.115c-3.409,2.285-16.58,10.456-19.617,12.275
		c-1.715,1.019-3.087,2.943-3.506,3.81c-0.467,0.962-1.161,3.352-1.476,7.457c-0.058,0.79-2.134,2.094-1.877,2.676
		c0.248,0.562,1.83,0.286,1.772,0.725c-0.058,0.38-0.524,0.961-0.524,1.332c0,0.438,0.934,0.038,0.706,0.515
		c-0.392,0.78,0.228,0.953,0.456,1.543c0.238,0.581-0.075,1.247,0.133,1.743c0.381,0.855,1.734,1.02,3.895,0.971
		c2.172-0.038,3.153,1.456,2.677,2.79c-0.618,1.763-2.066,1.734-4.313,3.247c-2.258,1.505-2.353,3.42-1.038,5.048
		c1,1.238,4.762,1.838,7.123-0.562c0.485-0.543-1.066,0.19-3.323-0.991c0,0-1.467-1.056-0.687-2.476
		c0.772-1.429,2.029-2.047,3.419-2.856c1.381-0.819,3.2-1.268,3.115-3.019c-0.087-1.744-1.905-1.991-2.639-2.038
		c-0.742-0.038-1.886,0.028-2.904-0.02c-1.543-0.076-2.01-0.811-2.104-3.751c-0.028-0.943-1.353-0.438-0.619-1.688
		c0.391-0.646-0.733-0.39-1.495-0.714c-0.648-0.295,0.752-1.656,1.723-2.952c0.306-0.41-0.17-0.933,0-2.866
		c0.163-1.686,0.943-3.886,3.2-5.429c1.105-0.752,5.925-3.752,7.323-4.552c1.963-1.133,11.457-7.276,13.087-8.504
		C324.74,273.761,321.454,271.075,321.749,271.275z"/>
	<path id="path16305" fill="#646569" d="M286.846,317.882l-0.009,0.096l-0.124-0.019c-0.143-0.02-0.257,0.019-0.324,0.095
		c-0.038,0.047-0.076,0.162-0.104,0.343l-0.277,2.086c-0.028,0.199-0.019,0.333,0.019,0.38c0.057,0.087,0.153,0.125,0.276,0.144
		l0.124,0.01l-0.01,0.095l-1.39-0.161c-0.514-0.066-0.895-0.172-1.143-0.306c-0.248-0.143-0.438-0.352-0.572-0.628
		c-0.123-0.276-0.171-0.571-0.123-0.914c0.057-0.447,0.257-0.801,0.581-1.066c0.372-0.296,0.886-0.41,1.552-0.334L286.846,317.882z
		 M285.847,318.006l-0.038-0.009l-0.038-0.02l-0.039-0.01l-0.038-0.009l-0.029-0.01l-0.038-0.01l-0.038-0.01l-0.028-0.01h-0.038
		l-0.029-0.009l-0.028-0.009h-0.028l-0.039-0.011h-0.029l-0.028-0.01h-0.029c-0.381-0.047-0.724,0.038-1.02,0.268
		c-0.285,0.229-0.466,0.562-0.523,1.01c-0.057,0.446,0.019,0.81,0.248,1.095c0.219,0.286,0.533,0.457,0.942,0.505
		c0.143,0.019,0.324,0.009,0.524-0.01L285.847,318.006z"/>
	<path id="path16307" fill="#646569" d="M281.38,320.187l0.314-1.246l-0.733-0.173c-0.19-0.038-0.324-0.047-0.409-0.01
		c-0.095,0.059-0.181,0.172-0.238,0.344l-0.085-0.02l0.276-1.095l0.096,0.019c-0.02,0.162-0.02,0.267-0.01,0.314
		c0.019,0.058,0.057,0.115,0.114,0.162c0.057,0.048,0.162,0.086,0.295,0.114l0.743,0.161l0.267-1.028
		c0.029-0.152,0.048-0.229,0.039-0.266c0-0.029-0.019-0.058-0.047-0.087c-0.029-0.028-0.086-0.047-0.181-0.066l-0.562-0.133
		c-0.191-0.038-0.333-0.057-0.419-0.057c-0.095,0.009-0.19,0.037-0.286,0.095c-0.124,0.076-0.267,0.19-0.419,0.361l-0.115-0.028
		l0.495-0.724l2.581,0.591l-0.019,0.085l-0.124-0.029c-0.076-0.018-0.151-0.018-0.238,0.01c-0.057,0.011-0.105,0.029-0.133,0.086
		c-0.029,0.039-0.067,0.144-0.105,0.286l-0.523,2.058c-0.058,0.199-0.058,0.333-0.029,0.391c0.038,0.066,0.133,0.123,0.267,0.151
		l0.115,0.029l-0.02,0.086l-2.581-0.581l0.133-0.704l0.105,0.018c-0.01,0.181,0,0.305,0.028,0.372
		c0.019,0.066,0.076,0.133,0.152,0.19c0.057,0.028,0.171,0.066,0.333,0.114L281.38,320.187z"/>
	<path id="path16311" fill="#646569" d="M278.542,317.835l0.333-0.896c0.066-0.198,0.085-0.322,0.066-0.38
		c-0.038-0.086-0.124-0.153-0.238-0.19l-0.124-0.038l0.029-0.086l1.39,0.457l-0.038,0.076l-0.124-0.037
		c-0.133-0.039-0.248-0.029-0.333,0.027c-0.047,0.039-0.105,0.144-0.171,0.314l-0.724,2c-0.076,0.181-0.095,0.314-0.066,0.372
		c0.038,0.085,0.114,0.151,0.238,0.19l0.124,0.037l-0.029,0.087l-1.19-0.391c-0.295-0.095-0.515-0.2-0.658-0.306
		c-0.143-0.114-0.257-0.256-0.323-0.429c-0.058-0.171-0.058-0.343,0.009-0.533c0.086-0.247,0.258-0.428,0.486-0.533
		c0.229-0.096,0.504-0.096,0.819,0.011c0.086,0.028,0.162,0.066,0.257,0.095C278.361,317.729,278.447,317.777,278.542,317.835z
		 M278.495,317.959l-0.01-0.01h-0.019l-0.01-0.01l-0.019-0.01l-0.01-0.01h-0.019l-0.009-0.009l-0.019-0.009h-0.01l-0.01-0.011
		l-0.019-0.01h-0.01l-0.009-0.009l-0.01-0.01h-0.019l-0.01-0.01c-0.057-0.028-0.114-0.047-0.161-0.067
		c-0.162-0.047-0.324-0.037-0.495,0.049c-0.163,0.085-0.277,0.219-0.353,0.409c-0.047,0.134-0.066,0.267-0.047,0.399
		c0.019,0.134,0.066,0.248,0.152,0.334c0.076,0.095,0.19,0.162,0.323,0.2c0.077,0.028,0.181,0.048,0.325,0.066L278.495,317.959z"/>
	<path id="path16315" fill="#646569" d="M275.095,316.063l1.229,0.514l0.429-0.362c0.104-0.095,0.171-0.17,0.2-0.228
		c0.019-0.048,0.019-0.095-0.01-0.152c-0.028-0.048-0.113-0.114-0.267-0.19l0.038-0.076l0.99,0.419l-0.038,0.086
		c-0.143-0.039-0.238-0.048-0.295-0.028c-0.104,0.038-0.267,0.142-0.466,0.323l-2.276,1.961l-0.076-0.028l0.085-2.933
		c0-0.238-0.019-0.4-0.067-0.486c-0.038-0.095-0.124-0.172-0.248-0.229l0.038-0.085l1.238,0.533l-0.038,0.076
		c-0.124-0.048-0.219-0.066-0.276-0.048c-0.067,0.01-0.104,0.048-0.133,0.096c-0.029,0.057-0.038,0.171-0.047,0.343L275.095,316.063
		z M275.085,316.254l-0.039,1.429l1.124-0.972L275.085,316.254z"/>
	<path id="path16319" fill="#646569" d="M271.267,312.854l0.8,0.438l0.19,1.866c0.067,0.038,0.133,0.077,0.171,0.096
		c0.019,0.019,0.038,0.028,0.067,0.038c0.019,0.01,0.038,0.028,0.057,0.038l0.514-0.818c0.105-0.172,0.163-0.296,0.143-0.362
		c-0.019-0.086-0.076-0.162-0.191-0.22l-0.114-0.067l0.048-0.075l1.267,0.704l-0.048,0.077l-0.114-0.066
		c-0.114-0.067-0.229-0.077-0.333-0.029c-0.058,0.029-0.133,0.114-0.238,0.276l-1.133,1.81c-0.114,0.171-0.152,0.295-0.143,0.362
		c0.019,0.085,0.076,0.171,0.2,0.229l0.104,0.057l-0.047,0.086l-1.076-0.609c-0.314-0.172-0.533-0.324-0.657-0.448
		c-0.124-0.123-0.201-0.275-0.229-0.447c-0.038-0.181,0-0.343,0.105-0.505c0.104-0.171,0.257-0.285,0.457-0.343
		c0.201-0.058,0.438-0.048,0.725,0.038l-0.115-1.152c-0.028-0.257-0.067-0.447-0.133-0.562c-0.057-0.124-0.171-0.229-0.324-0.333
		L271.267,312.854z M272.476,315.463h-0.01v-0.009h-0.01l0,0l-0.009-0.01l0,0h-0.01l0,0l-0.009-0.01l0,0l0,0l-0.009-0.01l0,0h-0.01
		l0,0l0,0c-0.028-0.019-0.038-0.028-0.057-0.038c-0.276-0.151-0.524-0.209-0.733-0.171c-0.219,0.038-0.381,0.144-0.495,0.324
		c-0.105,0.171-0.144,0.343-0.096,0.523c0.048,0.171,0.162,0.305,0.352,0.409c0.085,0.048,0.209,0.095,0.362,0.144L272.476,315.463z
		"/>
	<path id="path16321" fill="#646569" d="M267.086,313.979l0.438-0.649l0.077,0.058c-0.067,0.124-0.105,0.21-0.115,0.277
		c-0.009,0.104,0,0.198,0.038,0.275c0.048,0.086,0.124,0.171,0.238,0.248l0.4,0.267l1.543-2.01c0.124-0.153,0.181-0.266,0.181-0.333
		c-0.019-0.096-0.076-0.171-0.181-0.247l-0.104-0.067l0.057-0.076l1.19,0.809l-0.058,0.076l-0.095-0.066
		c-0.124-0.085-0.228-0.104-0.333-0.075c-0.058,0.028-0.143,0.104-0.257,0.257l-1.543,2l0.334,0.237
		c0.133,0.087,0.228,0.144,0.295,0.162c0.085,0.02,0.191,0.02,0.295-0.019c0.104-0.038,0.2-0.104,0.305-0.22l0.076,0.048
		l-0.505,0.601L267.086,313.979z"/>
	<path id="path16323" fill="#646569" d="M267.372,309.921l-1,2.848l1.562-1.591c0.143-0.152,0.219-0.257,0.219-0.313
		c0-0.096-0.047-0.182-0.143-0.268l-0.085-0.076l0.057-0.066l0.886,0.771l-0.066,0.058l-0.086-0.075
		c-0.104-0.096-0.219-0.134-0.314-0.106c-0.067,0.011-0.162,0.087-0.295,0.22l-1.533,1.562c-0.096,0.104-0.162,0.189-0.182,0.257
		c-0.019,0.048-0.009,0.105,0.01,0.172c0.029,0.066,0.095,0.142,0.19,0.229l-0.057,0.066l-0.724-0.629l0.915-2.647l-2.733,1.076
		l-0.714-0.628l0.066-0.067l0.086,0.076c0.104,0.095,0.219,0.134,0.323,0.115c0.058-0.021,0.162-0.087,0.286-0.22l1.533-1.562
		c0.143-0.152,0.209-0.257,0.209-0.323c0.01-0.096-0.038-0.182-0.143-0.266l-0.086-0.077l0.066-0.058l1.077,0.934l-0.067,0.067
		l-0.085-0.076c-0.114-0.095-0.219-0.135-0.324-0.105c-0.067,0.011-0.162,0.086-0.286,0.219l-1.571,1.591l2.952-1.162
		L267.372,309.921z"/>
	<path id="path16325" fill="#646569" d="M262.372,309.501l1.039-0.827l-0.496-0.544c-0.133-0.143-0.238-0.228-0.324-0.237
		c-0.114-0.011-0.247,0.037-0.4,0.143l-0.066-0.066l0.904-0.723l0.067,0.065c-0.115,0.113-0.181,0.2-0.2,0.248
		c-0.029,0.056-0.029,0.124-0.01,0.19c0.019,0.066,0.076,0.152,0.171,0.257l0.496,0.543l0.856-0.696
		c0.115-0.085,0.181-0.151,0.201-0.181c0.019-0.029,0.019-0.066,0.01-0.095c0-0.039-0.039-0.095-0.096-0.162l-0.381-0.41
		c-0.124-0.143-0.229-0.238-0.304-0.285c-0.076-0.037-0.172-0.076-0.286-0.076c-0.153-0.019-0.343,0-0.572,0.058l-0.066-0.076
		l0.848-0.314l1.724,1.895l-0.067,0.058l-0.086-0.086c-0.047-0.057-0.114-0.104-0.19-0.133c-0.058-0.02-0.114-0.02-0.162,0
		c-0.057,0.02-0.143,0.085-0.276,0.181L263,309.606c-0.162,0.124-0.248,0.229-0.267,0.285c-0.01,0.087,0.028,0.183,0.124,0.277
		l0.077,0.095l-0.067,0.058l-1.733-1.905l0.562-0.495l0.057,0.077c-0.114,0.132-0.181,0.237-0.209,0.314
		c-0.019,0.065-0.019,0.15,0.009,0.228c0.029,0.066,0.095,0.161,0.21,0.285L262.372,309.501z"/>
	<path id="path16327" fill="#646569" d="M260.667,307.893l-0.534-0.724l0.933-3l-1.638,1.047c-0.162,0.115-0.267,0.211-0.286,0.276
		c-0.019,0.086,0.01,0.182,0.085,0.285l0.067,0.087l-0.076,0.057l-0.686-0.943l0.086-0.047l0.066,0.095
		c0.086,0.115,0.171,0.171,0.285,0.171c0.067,0,0.172-0.047,0.334-0.151l2.399-1.553l0.048,0.077l-1,3.237l1.742-1.133
		c0.182-0.115,0.277-0.2,0.287-0.268c0.028-0.086,0-0.181-0.076-0.285l-0.067-0.096l0.076-0.057l0.686,0.943l-0.076,0.048
		l-0.077-0.096c-0.077-0.115-0.171-0.172-0.286-0.172c-0.058,0-0.181,0.057-0.333,0.152l-1.98,1.285
		c-0.039,0.134-0.058,0.239-0.058,0.295c0,0.067,0.019,0.144,0.039,0.238c0.019,0.039,0.057,0.105,0.114,0.182L260.667,307.893z"/>
	<path id="path16329" fill="#646569" d="M256.867,302.111l0.695-0.399l0.038,0.085c-0.114,0.076-0.19,0.144-0.229,0.201
		c-0.066,0.085-0.095,0.18-0.086,0.266c0,0.095,0.029,0.2,0.095,0.324l0.239,0.399l2.305-1.19c0.19-0.096,0.295-0.171,0.323-0.229
		c0.029-0.086,0.01-0.19-0.047-0.294l-0.067-0.106l0.086-0.047l0.705,1.22l-0.085,0.047l-0.058-0.104
		c-0.076-0.124-0.162-0.19-0.267-0.2c-0.066,0-0.18,0.038-0.352,0.124l-2.314,1.181l0.199,0.343
		c0.077,0.134,0.143,0.229,0.191,0.267c0.076,0.066,0.162,0.095,0.276,0.104c0.114,0.011,0.238-0.01,0.381-0.076l0.047,0.087
		l-0.733,0.333L256.867,302.111z"/>
	<path id="path16333" fill="#646569" d="M255.276,298.778l-0.009-0.038l-0.019-0.038l-0.01-0.037l-0.009-0.04l-0.01-0.037
		l-0.009-0.029l-0.01-0.037l-0.01-0.038v-0.038l-0.009-0.039v-0.037v-0.038v-0.038l-0.009-0.038l0.009-0.039v-0.037v-0.029v-0.037
		l0.009-0.039v-0.037l0.01-0.04l0.01-0.037l0.009-0.037l0.01-0.038l0.009-0.039l0.02-0.038l0.009-0.037l0.009-0.039l0.02-0.037
		l0.019-0.039l0.02-0.038l0.019-0.037c0.2-0.391,0.542-0.677,1.019-0.848c0.495-0.171,0.952-0.171,1.39,0.009
		c0.448,0.181,0.752,0.477,0.914,0.886c0.162,0.419,0.143,0.829-0.057,1.219c-0.21,0.391-0.562,0.686-1.067,0.858
		c-0.514,0.18-0.99,0.161-1.447-0.049C255.705,299.465,255.438,299.179,255.276,298.778z M255.467,298.76l0.01,0.028l0.009,0.019
		l0.01,0.029l0.009,0.019l0.02,0.029l0.009,0.019l0.01,0.02l0.019,0.028l0.009,0.019l0.019,0.02l0.019,0.019l0.01,0.019l0.019,0.02
		l0.019,0.019l0.019,0.021l0.01,0.009l0.019,0.019l0.019,0.02l0.02,0.01l0.019,0.019l0.029,0.02l0.019,0.009l0.019,0.01l0.019,0.02
		l0.029,0.009l0.019,0.01l0.029,0.019l0.019,0.011l0.029,0.009l0.019,0.009l0.029,0.011l0.028,0.01
		c0.343,0.104,0.781,0.066,1.295-0.115c0.524-0.181,0.886-0.428,1.086-0.742c0.151-0.238,0.181-0.486,0.076-0.752
		c-0.114-0.286-0.324-0.477-0.638-0.581c-0.305-0.105-0.715-0.067-1.229,0.113c-0.553,0.19-0.934,0.438-1.114,0.743
		C255.372,298.207,255.353,298.474,255.467,298.76z"/>
	<path id="path16335" fill="#646569" d="M254.515,295.722l1.305-0.323l-0.162-0.573c-0.038-0.132-0.095-0.219-0.172-0.266
		c-0.076-0.037-0.209-0.048-0.4-0.02l-0.019-0.095l1.124-0.276l0.028,0.086c-0.133,0.028-0.219,0.066-0.276,0.114
		c-0.047,0.047-0.085,0.096-0.095,0.162c-0.019,0.057-0.019,0.144,0.01,0.247l0.162,0.572l1.057-0.267
		c0.162-0.039,0.276-0.076,0.324-0.105c0.038-0.029,0.057-0.066,0.076-0.124c0.019-0.076,0.019-0.152,0-0.228l-0.028-0.115
		l0.085-0.019l0.381,1.343l-0.095,0.019l-0.028-0.104c-0.038-0.133-0.105-0.22-0.2-0.257c-0.066-0.019-0.19-0.011-0.391,0.037
		l-2.162,0.544c-0.162,0.037-0.276,0.076-0.324,0.104c-0.038,0.029-0.057,0.068-0.076,0.124c-0.02,0.077-0.02,0.152,0,0.229
		l0.028,0.104l-0.085,0.028l-0.657-2.333l0.724-0.219l0.019,0.085c-0.143,0.077-0.238,0.152-0.304,0.229
		c-0.048,0.066-0.086,0.143-0.095,0.228c-0.01,0.087,0.009,0.219,0.047,0.382L254.515,295.722z"/>
	<path id="path16337" fill="#646569" d="M254.934,291.122l-0.19-1.486l-0.981,0.105c-0.171,0.019-0.286,0.047-0.342,0.066
		c-0.039,0.019-0.067,0.066-0.096,0.114c-0.028,0.076-0.038,0.143-0.028,0.229l0.019,0.104l-0.105,0.02l-0.171-1.381l0.095-0.01
		l0.02,0.114c0.009,0.076,0.038,0.143,0.085,0.21c0.029,0.047,0.077,0.075,0.134,0.085c0.057,0.01,0.162,0.01,0.333-0.01
		l2.219-0.238c0.171-0.018,0.285-0.047,0.333-0.076c0.047-0.019,0.076-0.057,0.095-0.104c0.039-0.075,0.048-0.151,0.039-0.229
		l-0.019-0.104l0.095-0.009l0.171,1.37l-0.095,0.011l-0.01-0.115c-0.019-0.133-0.076-0.219-0.162-0.276
		c-0.058-0.028-0.191-0.038-0.391-0.009l-1.048,0.114l0.191,1.485l1.047-0.114c0.162-0.019,0.276-0.039,0.333-0.066
		c0.039-0.02,0.067-0.058,0.095-0.104c0.029-0.077,0.039-0.153,0.029-0.229l-0.01-0.115l0.095-0.01l0.171,1.372l-0.095,0.02
		l-0.019-0.124c-0.02-0.124-0.067-0.219-0.162-0.268c-0.047-0.037-0.19-0.037-0.391-0.019l-2.218,0.248
		c-0.171,0.019-0.286,0.038-0.334,0.066c-0.038,0.019-0.076,0.058-0.095,0.104c-0.038,0.076-0.048,0.152-0.038,0.229l0.019,0.114
		l-0.095,0.01l-0.171-1.371l0.095-0.011l0.01,0.114c0.009,0.077,0.038,0.145,0.085,0.211c0.038,0.037,0.076,0.066,0.134,0.085
		c0.057,0.01,0.171,0.01,0.333-0.009L254.934,291.122z"/>
	<path id="path16339" fill="#646569" d="M253.201,287.398l1.352-0.019v-0.715c-0.01-0.181-0.038-0.304-0.095-0.371
		c-0.076-0.076-0.21-0.124-0.409-0.124v-0.095l1.19-0.009v0.085c-0.162,0.019-0.267,0.048-0.314,0.076
		c-0.066,0.028-0.104,0.067-0.143,0.134c-0.028,0.066-0.047,0.171-0.038,0.304v0.715l1.133-0.01c0.153,0,0.248-0.009,0.276-0.019
		c0.038-0.019,0.066-0.038,0.085-0.077c0.019-0.028,0.028-0.085,0.028-0.18l-0.009-0.543c-0.009-0.181-0.019-0.314-0.048-0.4
		c-0.028-0.076-0.076-0.162-0.162-0.238c-0.105-0.095-0.267-0.19-0.476-0.295v-0.104l0.867,0.267l0.029,2.504h-0.095v-0.114
		c0-0.076-0.02-0.143-0.058-0.209c-0.028-0.057-0.076-0.085-0.133-0.105c-0.047-0.019-0.162-0.028-0.324-0.028l-2.247,0.028
		c-0.219,0-0.353,0.029-0.4,0.067c-0.067,0.057-0.095,0.152-0.095,0.286v0.114h-0.095l-0.029-2.505l0.752-0.038l0.01,0.095
		c-0.19,0.029-0.314,0.077-0.381,0.114c-0.067,0.039-0.115,0.095-0.152,0.181c-0.029,0.067-0.038,0.171-0.029,0.343L253.201,287.398
		z"/>
	<path id="path16343" fill="#646569" d="M255.496,283.027l-0.124,1.257l0.515,0.267c0.133,0.066,0.228,0.104,0.286,0.104
		c0.057,0.01,0.105-0.009,0.153-0.057c0.038-0.039,0.075-0.143,0.104-0.295l0.095,0.009l-0.104,1.019l-0.095-0.01
		c-0.01-0.134-0.039-0.219-0.077-0.267c-0.067-0.086-0.229-0.19-0.467-0.314l-2.705-1.39v-0.076l2.971-0.886
		c0.238-0.066,0.4-0.143,0.476-0.209c0.076-0.067,0.124-0.162,0.143-0.295l0.095,0.01l-0.124,1.276l-0.095-0.01
		c0-0.133-0.01-0.219-0.048-0.267c-0.028-0.047-0.076-0.076-0.133-0.085c-0.076,0-0.19,0.019-0.362,0.066L255.496,283.027z
		 M255.296,283.083l-1.438,0.419l1.333,0.695L255.296,283.083z"/>
	<path id="path16345" fill="#646569" d="M256.438,278.884l0.038-0.067l0.857,0.448l-0.523,2.457l-0.096-0.019l0.029-0.114
		c0.019-0.133,0-0.238-0.085-0.314c-0.039-0.038-0.162-0.085-0.353-0.114l-2.19-0.419c-0.209-0.038-0.343-0.048-0.4-0.01
		c-0.086,0.048-0.143,0.133-0.171,0.248l-0.029,0.124l-0.086-0.02l0.306-1.438l0.085,0.019c-0.028,0.171-0.038,0.286-0.019,0.362
		c0.019,0.076,0.057,0.124,0.105,0.162c0.048,0.039,0.171,0.077,0.362,0.114l2.132,0.4c0.134,0.028,0.229,0.028,0.295,0.019
		c0.029-0.01,0.067-0.038,0.095-0.076c0.02-0.038,0.057-0.152,0.095-0.362l0.058-0.228c0.047-0.248,0.066-0.419,0.047-0.534
		c-0.01-0.104-0.058-0.2-0.143-0.305C256.772,279.122,256.639,279.008,256.438,278.884z"/>
	<path id="path16347" fill="#646569" d="M254.838,275.646l0.791,0.181l-0.028,0.085c-0.144-0.019-0.248-0.019-0.314-0.01
		c-0.105,0.029-0.2,0.067-0.267,0.134c-0.067,0.067-0.124,0.172-0.162,0.295l-0.133,0.438l2.523,0.695
		c0.201,0.047,0.334,0.066,0.4,0.038c0.085-0.038,0.152-0.124,0.191-0.248l0.028-0.104l0.095,0.029l-0.409,1.323l-0.095-0.028
		l0.038-0.105c0.038-0.133,0.029-0.238-0.038-0.314c-0.048-0.047-0.162-0.104-0.343-0.152l-2.523-0.696l-0.124,0.382
		c-0.038,0.143-0.067,0.247-0.057,0.314c0.009,0.095,0.038,0.171,0.114,0.257c0.067,0.085,0.181,0.143,0.324,0.2l-0.028,0.085
		l-0.762-0.248L254.838,275.646z"/>
	<path id="path16349" fill="#646569" d="M256.886,274.789l0.601-1.391l-0.915-0.352c-0.162-0.067-0.276-0.095-0.333-0.095
		c-0.047,0-0.095,0.009-0.143,0.047c-0.066,0.048-0.114,0.115-0.143,0.181l-0.038,0.104l-0.096-0.038l0.553-1.276l0.095,0.038
		l-0.047,0.104c-0.029,0.067-0.048,0.143-0.029,0.219c0,0.057,0.02,0.105,0.067,0.143c0.038,0.029,0.143,0.077,0.295,0.143
		l2.067,0.791c0.162,0.067,0.276,0.095,0.333,0.095c0.047,0,0.095-0.019,0.143-0.047c0.057-0.058,0.105-0.114,0.133-0.182
		l0.057-0.104l0.086,0.029l-0.562,1.285l-0.086-0.038l0.047-0.105c0.058-0.124,0.058-0.229,0-0.314
		c-0.028-0.047-0.143-0.114-0.333-0.19l-0.972-0.372l-0.609,1.391l0.981,0.371c0.152,0.057,0.267,0.095,0.323,0.095
		c0.048,0,0.095-0.019,0.143-0.057c0.057-0.048,0.115-0.105,0.143-0.172l0.048-0.114l0.085,0.038l-0.552,1.276l-0.095-0.029
		l0.047-0.104c0.057-0.124,0.057-0.229,0-0.314c-0.028-0.057-0.143-0.115-0.333-0.19l-2.067-0.8
		c-0.162-0.058-0.276-0.095-0.333-0.095c-0.047,0-0.095,0.019-0.143,0.057c-0.057,0.048-0.105,0.105-0.143,0.181l-0.047,0.104
		l-0.086-0.038l0.562-1.276l0.085,0.038l-0.047,0.105c-0.028,0.066-0.038,0.143-0.028,0.219c0,0.047,0.028,0.095,0.066,0.133
		c0.038,0.039,0.143,0.086,0.295,0.143L256.886,274.789z"/>
	<path id="path16355" fill="#646569" d="M259.743,268.685l0.553-0.848l0.086,0.038c-0.066,0.124-0.095,0.238-0.086,0.314
		c0.009,0.086,0.086,0.248,0.229,0.505c0.152,0.257,0.276,0.514,0.372,0.79c0.238-0.038,0.409-0.086,0.533-0.143
		c0.124-0.067,0.219-0.143,0.276-0.238c0.058-0.096,0.086-0.191,0.077-0.286c-0.01-0.096-0.058-0.19-0.152-0.276l0.114-0.048
		c0.171,0.172,0.266,0.343,0.295,0.504c0.019,0.172-0.019,0.334-0.114,0.477c-0.076,0.114-0.181,0.21-0.314,0.285
		c-0.143,0.077-0.333,0.144-0.581,0.191c0.058,0.257,0.067,0.476,0.038,0.647c-0.028,0.162-0.085,0.323-0.19,0.485
		c-0.143,0.219-0.324,0.362-0.534,0.419c-0.219,0.057-0.409,0.038-0.59-0.066c-0.171-0.105-0.305-0.267-0.4-0.486
		c-0.104-0.219-0.143-0.542-0.114-0.972c-0.19-0.028-0.343-0.057-0.447-0.085c-0.115-0.038-0.219-0.076-0.305-0.134
		c-0.248-0.133-0.381-0.333-0.4-0.581c-0.009-0.19,0.038-0.371,0.152-0.543c0.105-0.162,0.238-0.267,0.41-0.305
		c0.171-0.048,0.323-0.019,0.476,0.067c0.152,0.085,0.257,0.209,0.305,0.38c0.047,0.162,0.057,0.409,0.038,0.743
		c0.438,0.019,0.848,0.01,1.248-0.019c-0.143-0.419-0.314-0.695-0.523-0.809c-0.067-0.048-0.143-0.058-0.219-0.048
		c-0.058,0.009-0.114,0.038-0.152,0.085L259.743,268.685z M260.838,269.979H260.8l-0.029,0.01h-0.038h-0.028h-0.038h-0.029
		l-0.029,0.01h-0.038h-0.029h-0.028h-0.028l-0.028,0.009h-0.029H260.4h-0.019h-0.029h-0.029l-0.019,0.01h-0.028h-0.019h-0.019
		h-0.028h-0.039h-0.038h-0.038h-0.039h-0.028c-0.171,0-0.362-0.01-0.6-0.029c0,0.219,0.029,0.41,0.086,0.562
		c0.067,0.152,0.171,0.267,0.314,0.352c0.162,0.086,0.324,0.114,0.505,0.086c0.171-0.02,0.314-0.115,0.418-0.276
		c0.057-0.085,0.096-0.172,0.104-0.277C260.876,270.341,260.867,270.189,260.838,269.979z M259.276,269.513l0.01-0.038v-0.047
		v-0.038v-0.039l0.009-0.038v-0.038l-0.009-0.028v-0.038v-0.038l-0.01-0.029v-0.028l-0.009-0.038l-0.01-0.029v-0.028l-0.009-0.029
		l-0.01-0.028c-0.057-0.152-0.143-0.257-0.286-0.343c-0.095-0.058-0.209-0.076-0.314-0.058c-0.105,0.029-0.191,0.076-0.248,0.171
		c-0.077,0.114-0.095,0.238-0.047,0.353c0.047,0.104,0.114,0.181,0.2,0.238c0.067,0.038,0.153,0.067,0.257,0.096
		C258.905,269.446,259.067,269.475,259.276,269.513z"/>
	<path id="path16357" fill="#646569" d="M262.505,265.713l1.048-1.124l-0.752-0.619c-0.134-0.105-0.219-0.171-0.276-0.191
		c-0.048-0.009-0.095-0.009-0.152,0.009c-0.086,0.029-0.143,0.067-0.2,0.124L262.095,264l-0.076-0.058l0.971-1.038l0.067,0.058
		l-0.076,0.085c-0.057,0.057-0.095,0.124-0.104,0.2c-0.02,0.048-0.01,0.105,0.019,0.152c0.019,0.048,0.104,0.124,0.228,0.219
		l1.686,1.391c0.133,0.104,0.219,0.171,0.276,0.19c0.048,0.01,0.095,0.01,0.153-0.009c0.076-0.028,0.143-0.067,0.2-0.124
		l0.077-0.086l0.076,0.057l-0.971,1.039l-0.068-0.058l0.077-0.085c0.095-0.096,0.124-0.2,0.114-0.295
		c-0.019-0.057-0.104-0.153-0.257-0.276l-0.791-0.657l-1.047,1.133l0.79,0.648c0.124,0.114,0.229,0.171,0.276,0.19
		c0.048,0.009,0.095,0.009,0.152-0.01c0.076-0.019,0.143-0.067,0.2-0.124l0.076-0.086l0.077,0.057l-0.972,1.038l-0.066-0.047
		l0.076-0.086c0.095-0.104,0.133-0.209,0.115-0.305c-0.02-0.057-0.095-0.152-0.257-0.276l-1.686-1.391
		c-0.124-0.105-0.219-0.171-0.276-0.19c-0.047-0.01-0.095-0.01-0.152,0.009c-0.077,0.029-0.144,0.076-0.191,0.124l-0.085,0.085
		l-0.067-0.057l0.962-1.038l0.076,0.057l-0.086,0.085c-0.047,0.057-0.085,0.124-0.104,0.2c-0.019,0.058-0.009,0.105,0.019,0.153
		c0.028,0.047,0.105,0.124,0.229,0.229L262.505,265.713z"/>
	<path id="path16359" fill="#646569" d="M265.267,261.038l-0.058-0.067l0.896-0.762l0.067,0.067l-0.105,0.085
		c-0.095,0.077-0.133,0.182-0.114,0.305c0.01,0.067,0.076,0.162,0.21,0.295l0.933,0.981c0.229,0.238,0.381,0.447,0.467,0.628
		c0.077,0.171,0.086,0.371,0.019,0.59c-0.057,0.219-0.209,0.448-0.466,0.667c-0.276,0.228-0.534,0.361-0.762,0.399
		c-0.238,0.029-0.458-0.009-0.657-0.114c-0.153-0.067-0.362-0.248-0.638-0.543l-0.896-0.943c-0.143-0.143-0.257-0.229-0.342-0.238
		c-0.086-0.009-0.181,0.029-0.276,0.114l-0.095,0.076l-0.058-0.066l1.086-0.924l0.067,0.058l-0.095,0.085
		c-0.105,0.086-0.152,0.181-0.133,0.286c0.009,0.066,0.076,0.162,0.209,0.304l1,1.048c0.095,0.095,0.2,0.2,0.333,0.305
		c0.143,0.095,0.257,0.172,0.381,0.2c0.104,0.019,0.229,0.019,0.362-0.01c0.133-0.038,0.267-0.104,0.39-0.219
		c0.171-0.143,0.286-0.305,0.353-0.486c0.066-0.181,0.066-0.342,0.019-0.495c-0.057-0.143-0.209-0.343-0.448-0.6l-0.934-0.981
		c-0.152-0.152-0.257-0.228-0.323-0.238c-0.105-0.01-0.2,0.029-0.295,0.105L265.267,261.038z"/>
	<path id="path16361" fill="#646569" d="M270.2,261.428l-2.724-1.552l1.295,1.791c0.114,0.162,0.209,0.257,0.276,0.276
		c0.095,0.019,0.2-0.01,0.305-0.077l0.105-0.066l0.057,0.066l-1,0.648l-0.057-0.077l0.104-0.066
		c0.124-0.076,0.181-0.162,0.181-0.267c0-0.066-0.058-0.162-0.162-0.314l-1.267-1.752c-0.085-0.124-0.162-0.2-0.228-0.238
		c-0.048-0.02-0.105-0.029-0.181-0.02c-0.066,0-0.162,0.048-0.277,0.124l-0.056-0.076l0.818-0.523l2.533,1.438L269.429,258
		l0.8-0.514l0.057,0.066l-0.095,0.067c-0.124,0.076-0.19,0.171-0.19,0.267c0,0.066,0.058,0.171,0.162,0.323l1.267,1.753
		c0.124,0.162,0.219,0.257,0.286,0.267c0.095,0.028,0.2,0,0.305-0.076l0.104-0.058l0.048,0.066l-1.209,0.781l-0.057-0.076
		l0.104-0.067c0.124-0.076,0.181-0.161,0.181-0.267c0-0.057-0.057-0.161-0.162-0.314l-1.295-1.791l0.533,2.962L270.2,261.428z"/>
	<path id="path16365" fill="#646569" d="M273.904,258.161l-1.209,0.562l0.038,0.552c0.01,0.134,0.028,0.229,0.058,0.286
		c0.019,0.048,0.066,0.076,0.124,0.086c0.066,0.019,0.171-0.01,0.323-0.067l0.048,0.077l-0.98,0.466l-0.039-0.085
		c0.115-0.086,0.19-0.152,0.21-0.2c0.038-0.105,0.047-0.286,0.028-0.543l-0.162-2.905l0.067-0.028l2.362,1.904
		c0.19,0.152,0.333,0.248,0.438,0.267c0.095,0.029,0.209,0.019,0.343-0.038l0.038,0.076l-1.209,0.582l-0.048-0.086
		c0.124-0.067,0.19-0.124,0.219-0.171c0.028-0.058,0.028-0.105,0-0.152c-0.029-0.066-0.115-0.152-0.248-0.257L273.904,258.161z
		 M273.752,258.037l-1.143-0.933l0.077,1.429L273.752,258.037z"/>
	<path id="path16367" fill="#646569" d="M274.428,255.514l0.886-0.295l2.838,1.619l-0.657-1.752
		c-0.077-0.19-0.143-0.295-0.209-0.323c-0.076-0.047-0.181-0.047-0.314,0l-0.105,0.038l-0.038-0.085l1.142-0.382l0.029,0.076
		l-0.115,0.048c-0.143,0.048-0.219,0.115-0.256,0.21c-0.02,0.057,0.009,0.181,0.075,0.352l0.972,2.581l-0.085,0.02l-3.066-1.743
		l0.714,1.876c0.067,0.19,0.133,0.304,0.19,0.333c0.086,0.047,0.19,0.047,0.314,0l0.124-0.038l0.028,0.085l-1.133,0.382
		l-0.039-0.086l0.114-0.038c0.143-0.039,0.229-0.115,0.257-0.21c0.01-0.066-0.01-0.181-0.076-0.352l-0.8-2.124
		c-0.133-0.077-0.229-0.124-0.295-0.134c-0.057-0.019-0.143-0.029-0.247-0.029c-0.047,0.01-0.124,0.02-0.219,0.058L274.428,255.514z
		"/>
	<path id="path16369" fill="#646569" d="M282.247,253.361l0.219,1.095l-0.096,0.02c-0.066-0.21-0.152-0.362-0.257-0.477
		c-0.105-0.105-0.238-0.19-0.4-0.238c-0.152-0.047-0.305-0.057-0.457-0.028c-0.181,0.028-0.314,0.114-0.41,0.229
		c-0.095,0.124-0.124,0.247-0.095,0.371c0.019,0.096,0.067,0.181,0.162,0.248c0.124,0.095,0.399,0.209,0.828,0.333
		c0.353,0.105,0.591,0.191,0.724,0.257s0.248,0.143,0.334,0.257c0.085,0.095,0.143,0.219,0.171,0.342
		c0.048,0.239-0.01,0.467-0.171,0.677c-0.172,0.209-0.41,0.343-0.715,0.4c-0.105,0.019-0.191,0.028-0.286,0.028
		c-0.057,0.009-0.161,0-0.343-0.028c-0.171-0.019-0.276-0.028-0.323-0.019c-0.039,0.009-0.067,0.028-0.086,0.057
		c-0.019,0.029-0.028,0.077-0.019,0.153l-0.095,0.019l-0.229-1.095l0.095-0.019c0.095,0.228,0.182,0.381,0.286,0.486
		c0.095,0.104,0.219,0.181,0.39,0.219c0.163,0.057,0.333,0.057,0.515,0.029c0.209-0.039,0.362-0.115,0.467-0.248
		c0.095-0.124,0.133-0.258,0.104-0.4c-0.019-0.076-0.057-0.152-0.124-0.228c-0.058-0.067-0.143-0.134-0.257-0.181
		c-0.077-0.038-0.267-0.104-0.59-0.2c-0.324-0.105-0.562-0.191-0.696-0.257c-0.143-0.067-0.257-0.153-0.342-0.248
		c-0.086-0.104-0.143-0.219-0.172-0.353c-0.038-0.229,0.01-0.438,0.162-0.638c0.152-0.199,0.381-0.323,0.667-0.381
		c0.181-0.028,0.381-0.019,0.6,0.029c0.096,0.019,0.171,0.029,0.209,0.019c0.038-0.009,0.076-0.028,0.105-0.057
		c0.009-0.028,0.028-0.076,0.028-0.162L282.247,253.361z"/>
	<path id="path16371" fill="#646569" d="M284.228,253.371l0.114,1.276l0.761-0.066c0.201-0.009,0.325-0.057,0.382-0.114
		c0.085-0.077,0.124-0.209,0.114-0.38l0.095-0.01l0.105,1.114l-0.095,0.01c-0.029-0.162-0.067-0.257-0.096-0.295
		c-0.038-0.057-0.085-0.095-0.162-0.124c-0.076-0.019-0.181-0.028-0.323-0.019l-0.762,0.066l0.104,1.066
		c0.019,0.143,0.029,0.228,0.048,0.257c0.019,0.029,0.038,0.047,0.076,0.066c0.038,0.01,0.095,0.02,0.199,0.01l0.581-0.047
		c0.191-0.02,0.324-0.038,0.41-0.077c0.086-0.029,0.162-0.085,0.239-0.171c0.095-0.104,0.19-0.257,0.285-0.466l0.105-0.01
		l-0.219,0.838l-2.648,0.219l-0.009-0.085l0.124-0.019c0.076,0,0.152-0.029,0.229-0.067c0.047-0.028,0.077-0.076,0.095-0.124
		c0.009-0.057,0.009-0.162,0-0.314l-0.2-2.104c-0.029-0.21-0.058-0.333-0.105-0.372c-0.066-0.057-0.171-0.086-0.314-0.067
		l-0.124,0.01v-0.096l2.647-0.219l0.105,0.705l-0.105,0.01c-0.047-0.163-0.095-0.286-0.152-0.343
		c-0.047-0.057-0.114-0.105-0.199-0.133c-0.077-0.009-0.19-0.009-0.362,0L284.228,253.371z"/>
	<path id="path16375" fill="#646569" d="M290.142,256.304l-0.924-0.01l-1.143-1.542c-0.076,0-0.152,0-0.2,0
		c-0.029,0-0.048,0-0.067,0c-0.029-0.009-0.057-0.009-0.077-0.009l-0.019,0.952c-0.009,0.2,0.01,0.324,0.057,0.38
		c0.067,0.067,0.162,0.105,0.286,0.105h0.133v0.095l-1.467-0.029v-0.095l0.124,0.009c0.143,0,0.248-0.039,0.314-0.124
		c0.038-0.048,0.057-0.171,0.057-0.352l0.038-2.105c0.01-0.2-0.009-0.333-0.057-0.381c-0.066-0.067-0.162-0.105-0.286-0.105
		l-0.133-0.009V253l1.257,0.02c0.362,0.009,0.629,0.038,0.8,0.095c0.171,0.048,0.324,0.143,0.438,0.286
		c0.125,0.133,0.172,0.296,0.172,0.476c0,0.21-0.076,0.372-0.22,0.524c-0.133,0.143-0.352,0.238-0.646,0.295l0.694,0.943
		c0.162,0.218,0.296,0.362,0.41,0.438c0.124,0.077,0.276,0.115,0.457,0.143V256.304z M287.732,254.59h0.01h0.01h0.009h0.009h0.01
		l0,0h0.01l0,0h0.009l0,0h0.01l0,0h0.009c0.02,0.009,0.039,0.009,0.048,0.009c0.324,0,0.572-0.057,0.743-0.19
		c0.162-0.133,0.248-0.304,0.257-0.504c0-0.209-0.065-0.372-0.189-0.505c-0.134-0.124-0.305-0.19-0.524-0.2
		c-0.095,0-0.229,0.019-0.391,0.047L287.732,254.59z"/>
	<path id="path16377" fill="#646569" d="M293.79,253.476l-0.011,0.085c-0.124,0.01-0.22,0.039-0.285,0.076
		c-0.105,0.066-0.2,0.181-0.286,0.333l-1.552,2.61l-0.095-0.02l-0.915-2.923c-0.049-0.152-0.086-0.238-0.104-0.276
		c-0.039-0.057-0.086-0.095-0.143-0.133c-0.058-0.038-0.135-0.066-0.239-0.085l0.01-0.086l1.4,0.162l-0.009,0.086
		c-0.153,0-0.258,0.009-0.314,0.047c-0.048,0.029-0.077,0.066-0.087,0.124c-0.009,0.085,0.01,0.209,0.067,0.391l0.619,1.98
		l1.048-1.761c0.104-0.182,0.161-0.306,0.171-0.372c0.01-0.048-0.01-0.095-0.057-0.143c-0.039-0.048-0.124-0.086-0.229-0.114
		c-0.019,0-0.028-0.01-0.048-0.02l0.01-0.085L293.79,253.476z"/>
	<path id="path16379" fill="#646569" d="M295.056,256.98l-0.028,0.095l-1.429-0.295l0.02-0.085l0.114,0.019
		c0.142,0.028,0.247,0.01,0.332-0.048c0.049-0.048,0.096-0.162,0.135-0.352l0.466-2.057c0.039-0.162,0.057-0.267,0.048-0.324
		c-0.009-0.038-0.038-0.076-0.075-0.114c-0.068-0.058-0.144-0.086-0.22-0.105l-0.124-0.019l0.029-0.086l1.437,0.286l-0.029,0.086
		l-0.113-0.019c-0.143-0.029-0.247-0.02-0.323,0.047c-0.057,0.038-0.104,0.162-0.144,0.343l-0.466,2.066
		c-0.038,0.152-0.047,0.267-0.047,0.314c0.009,0.048,0.037,0.086,0.084,0.124c0.058,0.047,0.135,0.086,0.21,0.105L295.056,256.98z"
		/>
	<path id="path16381" fill="#646569" d="M299.236,254.752l-0.267,1.076l-0.076-0.028c0-0.343-0.066-0.61-0.21-0.8
		c-0.133-0.19-0.343-0.324-0.601-0.4c-0.219-0.057-0.427-0.066-0.637-0.009c-0.21,0.057-0.4,0.181-0.581,0.38
		c-0.171,0.2-0.314,0.476-0.429,0.81c-0.086,0.286-0.115,0.542-0.086,0.771c0.029,0.238,0.124,0.438,0.276,0.6
		c0.152,0.162,0.353,0.286,0.601,0.353c0.219,0.067,0.418,0.076,0.608,0.029c0.191-0.038,0.42-0.152,0.696-0.352l0.066,0.066
		c-0.258,0.229-0.516,0.372-0.781,0.438c-0.257,0.067-0.542,0.057-0.838-0.028c-0.552-0.153-0.905-0.467-1.085-0.933
		c-0.135-0.353-0.135-0.724-0.011-1.105c0.095-0.314,0.268-0.572,0.496-0.791c0.228-0.219,0.495-0.362,0.8-0.428
		c0.305-0.077,0.609-0.067,0.914,0.019c0.237,0.077,0.457,0.19,0.647,0.372c0.058,0.057,0.095,0.085,0.133,0.096
		c0.039,0.009,0.077,0,0.124-0.02c0.058-0.028,0.105-0.076,0.144-0.143L299.236,254.752z"/>
	<path id="path16383" fill="#646569" d="M300.827,255.609l-0.523,1.181l0.694,0.276c0.182,0.076,0.314,0.095,0.4,0.067
		c0.104-0.029,0.209-0.133,0.295-0.295l0.086,0.038l-0.467,1.029l-0.086-0.028c0.039-0.153,0.058-0.257,0.058-0.305
		c-0.009-0.067-0.029-0.124-0.086-0.181c-0.047-0.047-0.143-0.105-0.267-0.162l-0.705-0.276l-0.438,0.99
		c-0.067,0.124-0.086,0.209-0.096,0.248c0,0.028,0.01,0.058,0.038,0.095c0.019,0.028,0.076,0.057,0.162,0.095l0.542,0.209
		c0.173,0.067,0.314,0.104,0.401,0.114c0.095,0.009,0.19,0,0.294-0.039c0.135-0.057,0.296-0.151,0.486-0.294l0.096,0.038
		l-0.609,0.638l-2.448-0.971l0.038-0.086l0.114,0.057c0.076,0.019,0.152,0.029,0.239,0.029c0.057,0,0.104-0.029,0.142-0.067
		c0.039-0.038,0.086-0.133,0.163-0.276l0.865-1.952c0.087-0.181,0.115-0.305,0.096-0.372c-0.029-0.076-0.104-0.143-0.237-0.2
		l-0.115-0.038l0.038-0.086l2.447,0.972l-0.256,0.676l-0.096-0.038c0.037-0.171,0.047-0.295,0.037-0.372
		c-0.009-0.077-0.047-0.143-0.114-0.201c-0.057-0.047-0.161-0.104-0.314-0.171L300.827,255.609z"/>
	<path id="path16385" fill="#646569" d="M305.294,257.361l-0.562,0.99l-0.087-0.048c0.077-0.2,0.115-0.38,0.115-0.523
		c-0.011-0.143-0.058-0.286-0.153-0.419c-0.086-0.133-0.199-0.229-0.343-0.305c-0.153-0.076-0.313-0.095-0.467-0.057
		c-0.152,0.038-0.257,0.114-0.323,0.229c-0.048,0.085-0.058,0.181-0.038,0.286c0.038,0.152,0.171,0.41,0.419,0.762
		c0.209,0.286,0.333,0.496,0.4,0.619c0.057,0.133,0.085,0.267,0.085,0.391c-0.01,0.133-0.038,0.267-0.104,0.372
		c-0.125,0.219-0.314,0.361-0.591,0.428c-0.266,0.067-0.543,0.028-0.819-0.114c-0.085-0.038-0.17-0.095-0.237-0.143
		c-0.049-0.028-0.124-0.104-0.247-0.229c-0.115-0.114-0.201-0.181-0.239-0.2c-0.037-0.02-0.066-0.029-0.104-0.01
		c-0.038,0-0.066,0.038-0.123,0.095l-0.087-0.038l0.572-0.981l0.076,0.038c-0.076,0.228-0.115,0.409-0.105,0.542
		c0.011,0.133,0.058,0.276,0.153,0.41c0.095,0.133,0.229,0.248,0.391,0.323c0.181,0.096,0.361,0.124,0.514,0.086
		c0.162-0.038,0.285-0.124,0.362-0.247c0.038-0.067,0.056-0.153,0.056-0.248c0-0.085-0.027-0.19-0.075-0.295
		c-0.038-0.067-0.144-0.239-0.323-0.505c-0.182-0.275-0.314-0.476-0.372-0.609c-0.065-0.144-0.095-0.276-0.095-0.4
		c0-0.134,0.029-0.248,0.095-0.372c0.125-0.199,0.305-0.333,0.562-0.399c0.247-0.066,0.504-0.029,0.761,0.095
		c0.162,0.086,0.314,0.21,0.458,0.381c0.057,0.077,0.104,0.124,0.142,0.133c0.039,0.028,0.077,0.028,0.116,0.019
		c0.037-0.009,0.085-0.038,0.132-0.095L305.294,257.361z"/>
	<path id="path16387" fill="#646569" d="M310.493,260.99l0.058-0.076l0.933,0.714l-0.058,0.076l-0.095-0.076
		c-0.104-0.086-0.22-0.105-0.352-0.067c-0.058,0.019-0.153,0.095-0.277,0.238l-0.876,1.019c-0.219,0.257-0.409,0.428-0.581,0.533
		c-0.18,0.095-0.381,0.133-0.628,0.114c-0.238-0.009-0.495-0.124-0.762-0.333c-0.296-0.219-0.477-0.438-0.544-0.648
		c-0.066-0.209-0.066-0.418,0.01-0.628c0.058-0.143,0.21-0.371,0.476-0.676l0.849-0.98c0.134-0.153,0.2-0.276,0.19-0.353
		c0-0.085-0.048-0.162-0.151-0.238l-0.096-0.076l0.057-0.067l1.143,0.867l-0.058,0.067l-0.104-0.076
		c-0.105-0.077-0.21-0.105-0.314-0.077c-0.067,0.019-0.163,0.105-0.286,0.238l-0.952,1.104c-0.076,0.095-0.171,0.21-0.258,0.353
		c-0.086,0.143-0.143,0.267-0.151,0.38c-0.01,0.105,0.009,0.219,0.065,0.343c0.049,0.114,0.153,0.228,0.285,0.323
		c0.173,0.144,0.363,0.219,0.562,0.257c0.201,0.029,0.372,0.009,0.524-0.066c0.143-0.067,0.334-0.238,0.562-0.514l0.887-1.019
		c0.132-0.152,0.199-0.267,0.19-0.333c0-0.095-0.048-0.171-0.153-0.257L310.493,260.99z"/>
	<path id="path16389" fill="#646569" d="M313.56,263.457l-0.848,0.79l-0.066-0.057c0.142-0.171,0.229-0.333,0.266-0.476
		c0.039-0.143,0.039-0.286-0.009-0.438c-0.048-0.153-0.123-0.276-0.239-0.381c-0.123-0.124-0.266-0.181-0.427-0.181
		c-0.153-0.01-0.285,0.038-0.381,0.124c-0.076,0.076-0.115,0.162-0.124,0.267c-0.02,0.152,0.048,0.438,0.171,0.838
		c0.115,0.333,0.172,0.571,0.19,0.705c0.02,0.143,0.01,0.276-0.038,0.399c-0.037,0.134-0.114,0.238-0.21,0.334
		c-0.19,0.171-0.419,0.257-0.695,0.247s-0.523-0.114-0.752-0.333c-0.066-0.067-0.133-0.133-0.182-0.2
		c-0.027-0.038-0.084-0.133-0.161-0.286c-0.085-0.143-0.143-0.228-0.171-0.257c-0.029-0.028-0.058-0.038-0.096-0.038
		c-0.037,0-0.085,0.02-0.152,0.067l-0.066-0.067l0.828-0.79l0.066,0.066c-0.133,0.201-0.228,0.362-0.256,0.496
		c-0.039,0.124-0.029,0.276,0.019,0.429c0.058,0.152,0.142,0.295,0.276,0.419c0.151,0.143,0.304,0.209,0.477,0.219
		c0.161,0.009,0.304-0.048,0.409-0.153c0.057-0.047,0.104-0.124,0.133-0.209c0.028-0.095,0.028-0.19,0.02-0.314
		c-0.01-0.076-0.067-0.267-0.163-0.572c-0.095-0.304-0.151-0.533-0.171-0.685c-0.02-0.143-0.009-0.286,0.029-0.4
		c0.038-0.124,0.113-0.229,0.209-0.333c0.181-0.162,0.391-0.238,0.657-0.238c0.258,0.009,0.495,0.114,0.705,0.305
		c0.123,0.124,0.237,0.286,0.313,0.477c0.038,0.095,0.076,0.152,0.104,0.181c0.029,0.028,0.066,0.048,0.105,0.048
		c0.028,0,0.085-0.02,0.152-0.067L313.56,263.457z"/>
	<path id="path16393" fill="#646569" d="M313.864,267.208l-0.857-0.981l-0.562,0.152c-0.142,0.038-0.237,0.076-0.285,0.114
		c-0.037,0.038-0.057,0.086-0.057,0.143s0.048,0.152,0.144,0.286l-0.076,0.047l-0.687-0.791l0.076-0.057
		c0.104,0.095,0.19,0.133,0.248,0.143c0.124,0.019,0.314-0.01,0.57-0.085l2.972-0.8l0.048,0.057l-1.457,2.59
		c-0.115,0.209-0.172,0.362-0.172,0.458c-0.009,0.104,0.029,0.209,0.115,0.314l-0.076,0.057l-0.857-0.99l0.066-0.058
		c0.096,0.096,0.172,0.153,0.238,0.162c0.058,0.009,0.104,0,0.152-0.028c0.057-0.048,0.124-0.143,0.21-0.286L313.864,267.208z
		 M313.96,267.037l0.705-1.256l-1.458,0.4L313.96,267.037z"/>
	<path id="path16395" fill="#646569" d="M319.264,280.913l-0.01,0.01l0,0l-0.009,0.009l-0.01,0.01l-0.019,0.01l-0.02,0.019
		l-0.02,0.019l-0.027,0.019l-0.058,0.047l-0.066,0.067l-0.087,0.067l-0.085,0.076l-0.104,0.085l-0.105,0.086l-0.123,0.105
		l-0.124,0.104l-0.133,0.104l-0.144,0.114l-0.143,0.124l-0.152,0.124l-0.162,0.124l-0.161,0.133l-0.172,0.133l-0.162,0.134
		l-0.353,0.267l-0.361,0.267l-0.353,0.267l-0.362,0.248l-0.171,0.124l-0.182,0.114l-0.171,0.115l-0.162,0.114
		c-1.876,1.171-10.294,5.647-12.161,7.19c-1.876,1.543-1.8,2.856-1.8,2.856l-0.305,3.819c0,0-1.172,1.181-1.324,1.619
		c-0.152,0.438,0.781,0.515,1.476,0.876c0.706,0.371-0.133,0.705,0.153,1.038c0.553,0.618,0.98,0.114,0.608,1.171
		c-0.056,0.163,0.468,0.658,0.41,0.934c-0.096,0.438-0.333,0.734,0.077,1.123c0.467,0.438,1.971,1.183,5.418,0.477
		c3.742-0.771,6.2,2.143,8.066,2.639c0.638,0.161,2.752,0.829,6.086-1.762c1.438-1.114-0.886-0.105-4.22-1.505
		c-3.553-1.486-4.619-1.581-7.01-1.134c-2.047,0.381-3.562,0.715-4.36,0.476c-0.686-0.208-0.114-1.228-0.629-1.398
		c-1.028-0.343-0.324-0.839-0.934-1.172c-0.619-0.343-0.257-0.477-0.276-1.161c-0.009-0.478-0.533-0.344-1.286-0.764
		c-0.58-0.332,0.801-0.942,1.001-1.428c0.229-0.6-0.058-1.438,0.095-2.666c0.277-2.162,3.506-3.677,5.22-4.628
		c1.876-1.02,7.227-4.286,8.494-5.134C320.816,283.637,319.264,280.913,319.264,280.913z"/>
	<path id="path16397" fill="#646569" d="M305.874,260.266h0.02h0.028l0.029-0.009h0.019l0.028-0.009h0.028l0.021-0.01l0.018-0.009
		l0.029-0.01l0.019-0.01l0.019-0.009l0.028-0.02l0.02-0.01l0.02-0.019l0.019-0.01l0.01-0.019l0.019-0.019l0.021-0.01l0.009-0.019
		l0.02-0.019l0.009-0.019l0.01-0.02l0.02-0.019l0.009-0.028l0.01-0.019v-0.019l0.01-0.029l0.009-0.019v-0.029l0.01-0.019v-0.029
		v-0.019c0-0.267-0.229-0.477-0.505-0.477c-0.286,0-0.505,0.21-0.505,0.477C305.369,260.047,305.588,260.266,305.874,260.266z"/>
</g>
</svg>
