<?xml version="1.0" encoding="utf-8"?>
<!-- Generator: Adobe Illustrator 16.0.4, SVG Export Plug-In . SVG Version: 6.00 Build 0)  -->
<!DOCTYPE svg PUBLIC "-//W3C//DTD SVG 1.1//EN" "http://www.w3.org/Graphics/SVG/1.1/DTD/svg11.dtd">
<svg version="1.1" id="Layer_1" xmlns="http://www.w3.org/2000/svg" xmlns:xlink="http://www.w3.org/1999/xlink" x="0px" y="0px"
	 width="164.424px" height="40px" viewBox="223.408 318.931 164.424 40" enable-background="new 223.408 318.931 164.424 40"
	 xml:space="preserve">
<g>
	<g>
		<path fill="#646569" d="M267.851,330.035v17.882h-3.128h-0.002v-8.064h-8.139v8.064h-3.13v-17.882h3.13v7.112h8.139v-7.112h0.002
			H267.851z M250.32,347.917L250.32,347.917h-3.13v-17.882h3.13V347.917z M244.106,347.917L244.106,347.917h-3.305l-8.139-13.148
			h-0.074v13.148h-2.98l0,0v-17.882l0,0h3.305h0l8.162,13.172h0.051v-13.172h2.98V347.917z M278.88,338.915l-11.058-19.983h-40.733
			c-2.033,0-3.681,1.652-3.681,3.684v32.634c0,2.032,1.648,3.68,3.681,3.68h40.695L278.88,338.915z"/>
		<path fill="#646569" d="M270.56,358.931l11.084-20.017l-11.047-19.983h2.765c1.514,0,3.354,1.086,4.085,2.41l9.716,17.573
			l-9.75,17.608c-0.731,1.324-2.571,2.409-4.085,2.409H270.56L270.56,358.931z"/>
		<path fill="#346094" d="M270.56,358.931l11.084-20.017l-11.049-19.983h2.767c1.514,0,3.355,1.086,4.087,2.41l9.713,17.573
			l-9.747,17.608c-0.734,1.324-2.574,2.409-4.087,2.409H270.56L270.56,358.931z"/>
		<path fill="#646569" d="M382.623,355.492c0.021,1.356,1.098,2,2.544,2c1.191,0,2.564-0.5,2.564-1.867
			c0-1.134-0.933-1.466-1.854-1.678c-0.933-0.211-1.866-0.3-1.866-0.924c0-0.5,0.676-0.588,1.044-0.588
			c0.556,0,1.056,0.166,1.169,0.768h1.32c-0.155-1.28-1.222-1.767-2.399-1.767c-1.046,0-2.399,0.388-2.399,1.643
			c0,1.168,0.909,1.5,1.844,1.701c0.921,0.212,1.844,0.289,1.879,0.955c0.031,0.658-0.802,0.756-1.279,0.756
			c-0.677,0-1.233-0.267-1.3-1H382.623z M377.942,353.957c0.034-0.855,0.634-1.522,1.509-1.522c0.857,0,1.401,0.723,1.446,1.522
			H377.942z M382.164,354.791c0.213-1.722-0.899-3.355-2.713-3.355c-1.709,0-2.775,1.399-2.775,3.033
			c0,1.767,1.011,3.023,2.811,3.023c1.257,0,2.322-0.701,2.601-1.957h-1.2c-0.223,0.634-0.667,0.955-1.4,0.955
			c-1.058,0-1.545-0.8-1.545-1.699H382.164L382.164,354.791z M371.076,355.492c0.021,1.356,1.099,2,2.544,2
			c1.191,0,2.564-0.5,2.564-1.867c0-1.134-0.932-1.466-1.852-1.678c-0.935-0.211-1.869-0.3-1.869-0.924
			c0-0.5,0.68-0.588,1.045-0.588c0.555,0,1.056,0.166,1.167,0.768h1.321c-0.154-1.28-1.219-1.767-2.398-1.767
			c-1.044,0-2.399,0.388-2.399,1.643c0,1.168,0.909,1.5,1.844,1.701c0.924,0.212,1.847,0.289,1.878,0.955
			c0.035,0.658-0.8,0.756-1.278,0.756c-0.678,0-1.233-0.267-1.3-1H371.076z M370.22,353.102c0-1.21-1.177-1.666-2.299-1.666
			c-1.27,0-2.523,0.433-2.612,1.909h1.266c0.055-0.622,0.556-0.91,1.269-0.91c0.512,0,1.189,0.122,1.189,0.777
			c0,0.744-0.811,0.646-1.724,0.811c-1.067,0.123-2.211,0.356-2.211,1.791c0,1.124,0.934,1.678,1.966,1.678
			c0.678,0,1.49-0.213,1.99-0.701c0.1,0.522,0.467,0.701,0.978,0.701c0.21,0,0.61-0.08,0.8-0.146v-0.876
			c-0.136,0.021-0.233,0.021-0.312,0.021c-0.232,0-0.299-0.122-0.299-0.433V353.102L370.22,353.102z M368.953,355.403
			c0,0.801-0.869,1.088-1.424,1.088c-0.445,0-1.167-0.166-1.167-0.732c0-0.668,0.489-0.87,1.034-0.957
			c0.555-0.102,1.167-0.088,1.557-0.347V355.403z M360.417,353.957c0.033-0.855,0.632-1.522,1.513-1.522
			c0.854,0,1.399,0.723,1.443,1.522H360.417z M364.642,354.791c0.21-1.722-0.902-3.355-2.712-3.355
			c-1.713,0-2.779,1.399-2.779,3.033c0,1.767,1.012,3.023,2.811,3.023c1.256,0,2.323-0.701,2.602-1.957h-1.201
			c-0.222,0.634-0.668,0.955-1.401,0.955c-1.055,0-1.544-0.8-1.544-1.699H364.642L364.642,354.791z M353.551,355.492
			c0.022,1.356,1.1,2,2.544,2c1.189,0,2.567-0.5,2.567-1.867c0-1.134-0.932-1.466-1.856-1.678c-0.935-0.211-1.868-0.3-1.868-0.924
			c0-0.5,0.679-0.588,1.047-0.588c0.556,0,1.057,0.166,1.167,0.768h1.322c-0.156-1.28-1.222-1.767-2.4-1.767
			c-1.046,0-2.4,0.388-2.4,1.643c0,1.168,0.911,1.5,1.845,1.701c0.922,0.212,1.845,0.289,1.879,0.955
			c0.033,0.658-0.801,0.756-1.277,0.756c-0.681,0-1.236-0.267-1.303-1H353.551z M351.418,350.6h1.266v-1.198h-1.266V350.6z
			 M351.418,357.334h1.266v-5.745h-1.266V357.334z M343.737,357.334h3.291c2.444,0,3.499-1.777,3.499-3.967
			c0-2.188-1.055-3.965-3.499-3.965h-3.291V357.334z M345.127,350.533h1.366c2.18,0,2.646,1.246,2.646,2.834
			c0,1.59-0.467,2.836-2.646,2.836h-1.366V350.533z M334.792,355.492c0.022,1.356,1.1,2,2.545,2c1.188,0,2.565-0.5,2.565-1.867
			c0-1.134-0.931-1.466-1.855-1.678c-0.935-0.211-1.866-0.3-1.866-0.924c0-0.5,0.677-0.588,1.046-0.588
			c0.555,0,1.056,0.166,1.166,0.768h1.322c-0.156-1.28-1.223-1.767-2.4-1.767c-1.044,0-2.398,0.388-2.398,1.643
			c0,1.168,0.909,1.5,1.843,1.701c0.923,0.212,1.847,0.289,1.879,0.955c0.032,0.658-0.801,0.756-1.277,0.756
			c-0.681,0-1.236-0.267-1.303-1H334.792z M333.97,351.591h-1.269v3.334c0,0.889-0.354,1.566-1.41,1.566
			c-0.688,0-1.101-0.365-1.101-1.378v-3.521h-1.267v3.645c0,1.5,0.643,2.256,2.145,2.256c0.633,0,1.322-0.377,1.633-0.957h0.022
			v0.799h1.244v-5.744H333.97z M325.169,357.492c1.844,0,2.898-1.269,2.898-3.036c0-1.756-1.055-3.02-2.898-3.02
			c-1.846,0-2.899,1.265-2.899,3.02C322.27,356.225,323.323,357.492,325.169,357.492 M325.169,356.491
			c-1.136,0-1.635-1.032-1.635-2.034c0-0.987,0.5-2.021,1.635-2.021c1.133,0,1.633,1.034,1.633,2.021
			C326.802,355.459,326.302,356.491,325.169,356.491 M320.091,350.6h1.265v-1.198h-1.265V350.6z M320.091,357.334h1.265v-5.745
			h-1.265V357.334z M315.979,352.535h0.957v3.39c0.021,0.955,0.266,1.466,1.587,1.466c0.278,0,0.545-0.045,0.822-0.066v-0.977
			c-0.179,0.043-0.356,0.043-0.533,0.043c-0.567,0-0.61-0.267-0.61-0.791v-3.067h1.144v-0.943h-1.144v-1.724h-1.266v1.724h-0.957
			V352.535L315.979,352.535z M315.721,353.513c-0.12-1.411-1.255-2.077-2.587-2.077c-1.891,0-2.834,1.353-2.834,3.088
			c0,1.69,0.987,2.968,2.787,2.968c1.479,0,2.401-0.824,2.633-2.312h-1.268c-0.122,0.823-0.63,1.311-1.366,1.311
			c-1.1,0-1.522-1.009-1.522-1.966c0-1.745,0.923-2.09,1.577-2.09c0.702,0,1.212,0.378,1.312,1.078L315.721,353.513L315.721,353.513
			z M305.586,353.957c0.034-0.855,0.634-1.522,1.51-1.522c0.857,0,1.401,0.723,1.446,1.522H305.586z M309.808,354.791
			c0.214-1.722-0.897-3.355-2.712-3.355c-1.709,0-2.775,1.399-2.775,3.033c0,1.767,1.01,3.023,2.811,3.023
			c1.256,0,2.32-0.701,2.6-1.957h-1.2c-0.223,0.634-0.667,0.955-1.4,0.955c-1.057,0-1.545-0.8-1.545-1.699H309.808L309.808,354.791z
			 M300.732,352.535h0.943v4.799h1.265v-4.799h1.08v-0.943h-1.08v-0.588c0-0.479,0.278-0.601,0.623-0.601
			c0.257,0,0.423,0.021,0.59,0.066v-0.988c-0.199-0.056-0.489-0.078-0.889-0.078c-0.823,0-1.589,0.244-1.589,1.709v0.479h-0.943
			V352.535z M295.118,357.334h1.268v-3.389c0-0.844,0.544-1.51,1.39-1.51c0.744,0,1.1,0.388,1.123,1.29v3.61h1.267v-3.944
			c0-1.289-0.789-1.955-2.034-1.955c-0.757,0-1.412,0.388-1.788,1.021l-0.023-0.021v-0.843h-1.201L295.118,357.334L295.118,357.334z
			 M292.407,357.334h1.388v-7.932h-1.388V357.334z"/>
		<path fill="#646569" d="M346.504,335.326h-1.265v2.932h-0.022c-0.39-0.632-1.19-0.898-1.913-0.898
			c-1.256,0-2.488,0.909-2.488,2.988c0,1.723,0.875,3.067,2.688,3.067c0.724,0,1.445-0.279,1.779-0.934h0.023v0.775h1.197
			L346.504,335.326L346.504,335.326z M342.082,340.448c0-1.034,0.422-2.089,1.612-2.089c0.978,0,1.589,0.755,1.589,2.021
			c0,1.002-0.479,2.034-1.612,2.034C342.57,342.415,342.082,341.438,342.082,340.448 M334.914,343.258h1.266v-3.388
			c0-0.843,0.546-1.51,1.392-1.51c0.743,0,1.1,0.387,1.123,1.289v3.61h1.264v-3.944c0-1.29-0.785-1.953-2.03-1.953
			c-0.757,0-1.411,0.388-1.792,1.02l-0.021-0.021v-0.843h-1.2V343.258L334.914,343.258z M333.748,339.026
			c0-1.211-1.179-1.666-2.302-1.666c-1.267,0-2.521,0.433-2.609,1.908h1.266c0.054-0.622,0.554-0.909,1.267-0.909
			c0.512,0,1.19,0.122,1.19,0.776c0,0.745-0.812,0.646-1.724,0.812c-1.067,0.122-2.21,0.355-2.21,1.79
			c0,1.123,0.932,1.678,1.964,1.678c0.68,0,1.492-0.213,1.992-0.7c0.101,0.522,0.466,0.7,0.975,0.7c0.214,0,0.613-0.079,0.802-0.146
			v-0.876c-0.133,0.022-0.232,0.022-0.313,0.022c-0.23,0-0.297-0.122-0.297-0.434V339.026L333.748,339.026z M332.481,341.326
			c0,0.8-0.869,1.089-1.425,1.089c-0.444,0-1.168-0.166-1.168-0.732c0-0.669,0.489-0.867,1.035-0.956
			c0.556-0.102,1.168-0.089,1.558-0.346V341.326z M322.023,343.238l-0.144,0.444c-0.157,0.49-0.302,0.802-0.89,0.802
			c-0.199,0-0.398-0.045-0.599-0.078v1.065c0.288,0.046,0.575,0.067,0.876,0.067c1.322,0,1.623-0.932,2.032-1.966l2.234-6.055
			h-1.323l-1.455,4.29h-0.021l-1.503-4.29h-1.389L322.023,343.238z M319.399,337.516h-1.266v0.788h-0.022
			c-0.321-0.645-0.979-0.943-1.7-0.943c-1.634,0-2.6,1.332-2.6,2.877c0,1.646,0.755,3.021,2.579,3.021
			c0.709,0,1.365-0.376,1.722-1.008h0.022v0.876c0,0.944-0.454,1.467-1.479,1.467c-0.646,0-1.223-0.121-1.377-0.845h-1.268
			c0.111,1.343,1.409,1.789,2.565,1.789c1.813,0,2.822-0.855,2.822-2.58V337.516L319.399,337.516z M316.589,342.26
			c-1.057,0-1.511-0.957-1.511-1.902c0-0.955,0.388-1.999,1.511-1.999c1.1,0,1.545,0.909,1.545,1.9
			C318.135,341.237,317.712,342.26,316.589,342.26 M310.377,343.258h1.267v-2.733c0-1.268,0.688-1.966,1.556-1.966
			c0.179,0,0.368,0.035,0.545,0.056v-1.223c-0.111-0.009-0.19-0.031-0.479-0.031c-0.777,0-1.533,0.654-1.677,1.265h-0.023v-1.109
			h-1.188L310.377,343.258L310.377,343.258z M305.387,339.88c0.033-0.854,0.634-1.521,1.512-1.521c0.855,0,1.4,0.722,1.445,1.521
			H305.387z M309.608,340.714c0.212-1.723-0.899-3.354-2.71-3.354c-1.712,0-2.777,1.398-2.777,3.033c0,1.767,1.009,3.022,2.81,3.022
			c1.256,0,2.322-0.7,2.599-1.957h-1.2c-0.221,0.633-0.667,0.956-1.398,0.956c-1.057,0-1.546-0.802-1.546-1.7H309.608
			L309.608,340.714z M301.954,343.258h1.265v-7.932h-1.265V343.258z M299.476,343.258h1.266v-7.932h-1.266V343.258z
			 M291.485,343.258h1.435l0.744-2.099h3.166l0.747,2.099h1.489l-3.057-7.932h-1.476L291.485,343.258z M295.241,336.692h0.033
			l1.189,3.412h-2.423L295.241,336.692z"/>
		<path fill="#646569" d="M384.411,324.381h0.944v4.801h1.266v-4.801h1.078v-0.943h-1.078v-0.589c0-0.478,0.277-0.601,0.622-0.601
			c0.256,0,0.422,0.023,0.589,0.066v-0.988c-0.199-0.055-0.488-0.077-0.889-0.077c-0.823,0-1.588,0.245-1.588,1.712v0.477h-0.944
			V324.381z M381.221,329.338c1.846,0,2.899-1.265,2.899-3.034c0-1.755-1.054-3.022-2.899-3.022c-1.843,0-2.9,1.268-2.9,3.022
			C378.32,328.073,379.378,329.338,381.221,329.338 M381.221,328.339c-1.133,0-1.635-1.034-1.635-2.034
			c0-0.99,0.503-2.024,1.635-2.024c1.136,0,1.636,1.034,1.636,2.024C382.856,327.305,382.354,328.339,381.221,328.339
			 M370.708,325.805c0.033-0.855,0.633-1.524,1.513-1.524c0.854,0,1.399,0.723,1.444,1.524H370.708z M374.932,326.636
			c0.21-1.722-0.902-3.354-2.711-3.354c-1.713,0-2.778,1.401-2.778,3.033c0,1.768,1.009,3.023,2.81,3.023
			c1.257,0,2.325-0.7,2.601-1.958h-1.199c-0.224,0.636-0.669,0.958-1.402,0.958c-1.055,0-1.543-0.801-1.543-1.703H374.932z
			 M365.643,324.381h0.953v3.39c0.023,0.955,0.268,1.466,1.589,1.466c0.279,0,0.545-0.042,0.824-0.066v-0.977
			c-0.181,0.044-0.356,0.044-0.537,0.044c-0.564,0-0.609-0.267-0.609-0.788v-3.069h1.146v-0.943h-1.146v-1.722h-1.267v1.722h-0.954
			L365.643,324.381L365.643,324.381z M365.085,323.438h-1.267v3.334c0,0.888-0.356,1.566-1.412,1.566
			c-0.689,0-1.101-0.367-1.101-1.376v-3.524h-1.266v3.646c0,1.5,0.644,2.255,2.145,2.255c0.633,0,1.322-0.378,1.633-0.954h0.023
			v0.799h1.242v-5.745H365.085z M355.961,324.381h0.956v3.39c0.023,0.955,0.269,1.466,1.589,1.466c0.278,0,0.545-0.042,0.821-0.066
			v-0.977c-0.177,0.044-0.354,0.044-0.532,0.044c-0.566,0-0.611-0.267-0.611-0.788v-3.069h1.144v-0.943h-1.144v-1.722h-1.267v1.722
			h-0.956V324.381L355.961,324.381z M354.095,322.448h1.266v-1.199h-1.266V322.448z M354.095,329.183h1.266v-5.745h-1.266V329.183z
			 M349.983,324.381h0.953v3.39c0.023,0.955,0.269,1.466,1.59,1.466c0.279,0,0.545-0.042,0.822-0.066v-0.977
			c-0.178,0.044-0.354,0.044-0.533,0.044c-0.565,0-0.609-0.267-0.609-0.788v-3.069h1.143v-0.943h-1.143v-1.722h-1.27v1.722h-0.953
			V324.381z M344.684,327.34c0.02,1.356,1.099,1.999,2.544,1.999c1.189,0,2.566-0.5,2.566-1.866c0-1.132-0.932-1.467-1.857-1.678
			c-0.933-0.212-1.865-0.302-1.865-0.922c0-0.5,0.677-0.59,1.044-0.59c0.555,0,1.058,0.167,1.169,0.768h1.321
			c-0.155-1.278-1.223-1.767-2.401-1.767c-1.044,0-2.398,0.39-2.398,1.646c0,1.167,0.91,1.5,1.843,1.699
			c0.923,0.211,1.846,0.29,1.879,0.957c0.033,0.654-0.798,0.755-1.276,0.755c-0.68,0-1.235-0.266-1.302-1H344.684L344.684,327.34z
			 M338.814,329.183h1.267v-3.39c0-0.845,0.546-1.511,1.391-1.511c0.744,0,1.1,0.39,1.122,1.289v3.613h1.267v-3.945
			c0-1.289-0.79-1.956-2.033-1.956c-0.756,0-1.413,0.389-1.79,1.022l-0.023-0.022v-0.843h-1.198L338.814,329.183L338.814,329.183z
			 M336.104,329.183h1.39v-7.934h-1.39V329.183z M330.591,329.183h1.268v-7.934h-1.268V329.183z M329.389,324.948
			c0-1.209-1.174-1.666-2.298-1.666c-1.267,0-2.522,0.435-2.611,1.91h1.266c0.056-0.622,0.557-0.911,1.269-0.911
			c0.512,0,1.189,0.122,1.189,0.777c0,0.746-0.812,0.645-1.722,0.812c-1.07,0.122-2.211,0.356-2.211,1.789
			c0,1.123,0.932,1.678,1.965,1.678c0.677,0,1.489-0.21,1.991-0.7c0.099,0.521,0.466,0.7,0.974,0.7c0.213,0,0.611-0.078,0.803-0.144
			v-0.877c-0.134,0.021-0.234,0.021-0.312,0.021c-0.235,0-0.302-0.123-0.302-0.434V324.948z M328.124,327.249
			c0,0.802-0.866,1.091-1.422,1.091c-0.445,0-1.167-0.168-1.167-0.733c0-0.669,0.488-0.869,1.032-0.957
			c0.558-0.102,1.169-0.09,1.557-0.346V327.249L328.124,327.249z M318.4,329.183h1.266v-3.39c0-0.845,0.545-1.511,1.392-1.511
			c0.744,0,1.1,0.39,1.122,1.289v3.613h1.266v-3.945c0-1.289-0.787-1.956-2.031-1.956c-0.757,0-1.412,0.389-1.792,1.022
			l-0.021-0.022v-0.843h-1.199L318.4,329.183L318.4,329.183z M314.645,329.338c1.846,0,2.899-1.265,2.899-3.034
			c0-1.755-1.054-3.022-2.899-3.022s-2.9,1.268-2.9,3.022C311.744,328.073,312.799,329.338,314.645,329.338 M314.645,328.339
			c-1.136,0-1.636-1.034-1.636-2.034c0-0.99,0.501-2.024,1.636-2.024s1.632,1.034,1.632,2.024
			C316.277,327.305,315.779,328.339,314.645,328.339 M309.565,322.448h1.266v-1.199h-1.266V322.448z M309.565,329.183h1.266v-5.745
			h-1.266V329.183z M305.455,324.381h0.956v3.39c0.021,0.955,0.266,1.466,1.587,1.466c0.277,0,0.545-0.042,0.824-0.066v-0.977
			c-0.181,0.044-0.357,0.044-0.535,0.044c-0.568,0-0.611-0.267-0.611-0.788v-3.069h1.146v-0.943h-1.146v-1.722h-1.265v1.722h-0.956
			V324.381L305.455,324.381z M304.865,324.948c0-1.209-1.178-1.666-2.301-1.666c-1.268,0-2.521,0.435-2.61,1.91h1.265
			c0.055-0.622,0.556-0.911,1.268-0.911c0.512,0,1.189,0.122,1.189,0.777c0,0.746-0.811,0.645-1.724,0.812
			c-1.067,0.122-2.21,0.356-2.21,1.789c0,1.123,0.932,1.678,1.965,1.678c0.679,0,1.49-0.21,1.991-0.7c0.1,0.521,0.466,0.7,0.979,0.7
			c0.208,0,0.609-0.078,0.799-0.144v-0.877c-0.134,0.021-0.234,0.021-0.312,0.021c-0.231,0-0.298-0.123-0.298-0.434V324.948
			L304.865,324.948z M303.599,327.249c0,0.802-0.867,1.091-1.424,1.091c-0.445,0-1.168-0.168-1.168-0.733
			c0-0.669,0.489-0.869,1.033-0.957c0.555-0.102,1.169-0.09,1.559-0.346V327.249z M292.352,329.183h1.322v-5.834h0.032l3.612,5.834
			h1.468v-7.934h-1.321v5.845h-0.022l-3.624-5.845h-1.467L292.352,329.183L292.352,329.183z"/>
	</g>
</g>
</svg>
