<?xml version="1.0" encoding="iso-8859-1"?>
<!-- Generator: Adobe Illustrator 16.0.4, SVG Export Plug-In . SVG Version: 6.00 Build 0)  -->
<!DOCTYPE svg PUBLIC "-//W3C//DTD SVG 1.1 Tiny//EN" "http://www.w3.org/Graphics/SVG/1.1/DTD/svg11-tiny.dtd">
<svg version="1.1" baseProfile="tiny" xmlns="http://www.w3.org/2000/svg" xmlns:xlink="http://www.w3.org/1999/xlink" x="0px"
	 y="0px" width="1420.5px" height="303.9px" viewBox="0 0 1420.5 303.9" overflow="visible" xml:space="preserve">
<g id="Logo">
</g>
<g id="Text_Right">
	<polygon display="none" fill="none" points="523.3,17.9 523.3,78.4 534.8,78.4 534.8,33.9 559.8,78.4 572.8,78.4 572.8,17.9 
		561.3,17.9 561.3,60.4 535.3,17.9 	"/>
	<path fill="#FFFFFF" d="M363,0.1c0,0,34.3-2.8,48.1,17c15,21.6,71.3,132.3,71.3,132.3l-66.5,124.8c0,0-7.7,30.8-54.3,29.7
		l82.6-152.7L363,0.1z"/>
	<path fill="#FFFFFF" d="M1301.1,0.1c0,0,34.3-2.8,48.1,17c15,21.6,71.3,132.3,71.3,132.3L1354,274.2c0,0-7.7,30.8-54.3,29.7
		l82.6-152.7L1301.1,0.1z"/>
	<path fill="#FFFFFF" d="M336.5,0l84,151.9l-84,151.9H25c0,0-25-1.9-25-23.4C0,258.9,0,23.9,0,23.9S0.5,3.6,24.5,0H336.5z
		 M228.3,85.9v133.5h23.2v-60H313v60h24V85.9h-24v53.2h-61.5V85.9H228.3z M181,85.9v133.5h21.8V85.9H181z M46.8,85.9v133.5h21.8
		v-96.7l62.2,96.7h27V85.9H133v97.5L73,85.9H46.8z"/>
	<g>
		<path fill="#FFFFFF" d="M526.2,15.6h11l27.3,46.3h0.2V15.6h9.9v62.8h-11l-27.2-46.2h-0.3v46.2h-9.9V15.6z"/>
		<path fill="#FFFFFF" d="M620.9,68.3c0,1.2,0.2,2.1,0.5,2.6c0.3,0.5,0.9,0.8,1.8,0.8c0.3,0,0.6,0,1,0c0.4,0,0.8-0.1,1.3-0.2v7
			c-0.3,0.1-0.8,0.2-1.3,0.4c-0.5,0.1-1.1,0.3-1.6,0.4c-0.6,0.1-1.1,0.2-1.7,0.3c-0.6,0.1-1,0.1-1.4,0.1c-2,0-3.6-0.4-4.8-1.2
			s-2.1-2.3-2.5-4.3c-1.9,1.9-4.2,3.3-7,4.2s-5.4,1.3-8,1.3c-2,0-3.8-0.3-5.6-0.8c-1.8-0.6-3.4-1.4-4.7-2.5
			c-1.4-1.1-2.5-2.5-3.3-4.1c-0.8-1.7-1.2-3.6-1.2-5.9c0-2.8,0.5-5.1,1.5-6.9c1-1.8,2.3-3.1,3.8-4.1c1.6-1,3.4-1.7,5.4-2.2
			c2-0.4,4-0.8,6-1c1.7-0.4,3.4-0.6,4.9-0.7c1.6-0.1,2.9-0.4,4.1-0.7c1.2-0.4,2.1-0.9,2.8-1.6c0.7-0.7,1-1.8,1-3.3
			c0-1.3-0.3-2.3-0.9-3.2c-0.6-0.8-1.3-1.5-2.2-1.9s-1.8-0.7-2.9-0.9c-1.1-0.1-2.1-0.2-3-0.2c-2.7,0-4.9,0.6-6.6,1.8
			c-1.7,1.2-2.7,3-2.9,5.5H584c0.2-2.9,0.8-5.4,2-7.3c1.2-1.9,2.7-3.5,4.5-4.7c1.8-1.2,3.9-2,6.1-2.5c2.3-0.5,4.6-0.7,7-0.7
			c2.1,0,4.2,0.2,6.3,0.7c2.1,0.5,3.9,1.2,5.6,2.3c1.6,1.1,3,2.4,4,4.1s1.5,3.7,1.5,6.1V68.3z M611.4,55.7c-1.5,1-3.2,1.6-5.4,1.8
			c-2.1,0.2-4.2,0.5-6.4,0.9c-1,0.2-2,0.4-2.9,0.7c-0.9,0.3-1.8,0.8-2.5,1.3c-0.7,0.6-1.3,1.3-1.7,2.2c-0.4,0.9-0.6,2-0.6,3.3
			c0,1.1,0.3,2.1,0.9,2.8c0.6,0.8,1.4,1.4,2.2,1.8c0.9,0.4,1.8,0.7,2.8,0.9c1,0.2,2,0.3,2.8,0.3c1.1,0,2.2-0.1,3.4-0.4
			c1.2-0.3,2.4-0.8,3.5-1.5s2-1.6,2.7-2.7c0.7-1.1,1.1-2.4,1.1-4V55.7z"/>
		<path fill="#FFFFFF" d="M625.9,33h7.2V19.3h9.5V33h8.6v7.5h-8.6v24.3c0,1.1,0,2,0.1,2.7c0.1,0.8,0.3,1.4,0.6,1.9
			c0.3,0.5,0.8,0.9,1.4,1.2s1.4,0.4,2.5,0.4c0.7,0,1.3,0,2,0c0.7,0,1.3-0.1,2-0.3v7.7c-1.1,0.1-2.1,0.2-3.1,0.4
			c-1,0.1-2,0.2-3.1,0.2c-2.5,0-4.5-0.2-6.1-0.7c-1.5-0.5-2.7-1.2-3.6-2.2c-0.9-1-1.5-2.2-1.8-3.7c-0.3-1.5-0.5-3.1-0.5-5V40.4h-7.2
			V33z"/>
		<path fill="#FFFFFF" d="M657.5,15.6h9.5v9.5h-9.5V15.6z M657.5,33h9.5v45.5h-9.5V33z"/>
		<path fill="#FFFFFF" d="M696.2,79.7c-3.5,0-6.5-0.6-9.2-1.8c-2.7-1.2-5-2.9-6.9-5c-1.9-2.1-3.3-4.6-4.3-7.6
			c-1-2.9-1.5-6.2-1.5-9.7c0-3.5,0.5-6.7,1.5-9.6c1-2.9,2.4-5.5,4.3-7.6c1.9-2.1,4.2-3.8,6.9-5c2.7-1.2,5.8-1.8,9.2-1.8
			c3.5,0,6.5,0.6,9.2,1.8c2.7,1.2,5,2.9,6.9,5c1.9,2.1,3.3,4.6,4.3,7.6c1,2.9,1.5,6.1,1.5,9.6c0,3.5-0.5,6.7-1.5,9.7
			c-1,2.9-2.4,5.5-4.3,7.6s-4.2,3.8-6.9,5C702.8,79.1,699.7,79.7,696.2,79.7z M696.2,71.8c2.1,0,4-0.5,5.5-1.4
			c1.6-0.9,2.8-2.2,3.8-3.7c1-1.5,1.7-3.2,2.2-5.1c0.5-1.9,0.7-3.9,0.7-5.9c0-1.9-0.2-3.9-0.7-5.8c-0.5-1.9-1.2-3.7-2.2-5.1
			s-2.3-2.7-3.8-3.7c-1.6-0.9-3.4-1.4-5.5-1.4c-2.1,0-4,0.5-5.5,1.4c-1.6,0.9-2.8,2.2-3.8,3.7s-1.7,3.2-2.2,5.1
			c-0.5,1.9-0.7,3.9-0.7,5.8c0,2,0.2,3.9,0.7,5.9c0.5,1.9,1.2,3.6,2.2,5.1c1,1.5,2.3,2.8,3.8,3.7C692.3,71.3,694.1,71.8,696.2,71.8z
			"/>
		<path fill="#FFFFFF" d="M725.1,33h9v6.7l0.2,0.2c1.4-2.5,3.3-4.5,5.7-5.9c2.3-1.4,4.9-2.2,7.8-2.2c4.7,0,8.5,1.3,11.2,3.9
			c2.7,2.6,4.1,6.5,4.1,11.6v31.2h-9.5V49.9c-0.1-3.6-0.8-6.2-2.2-7.8c-1.3-1.6-3.4-2.4-6.3-2.4c-1.6,0-3.1,0.3-4.3,0.9
			c-1.3,0.6-2.4,1.5-3.3,2.6c-0.9,1.1-1.6,2.4-2.1,3.8c-0.5,1.5-0.8,3-0.8,4.7v26.8h-9.5V33z"/>
		<path fill="#FFFFFF" d="M808.3,68.3c0,1.2,0.2,2.1,0.5,2.6c0.3,0.5,0.9,0.8,1.8,0.8c0.3,0,0.6,0,1,0c0.4,0,0.8-0.1,1.3-0.2v7
			c-0.3,0.1-0.8,0.2-1.3,0.4c-0.5,0.1-1.1,0.3-1.6,0.4c-0.6,0.1-1.1,0.2-1.7,0.3c-0.6,0.1-1,0.1-1.4,0.1c-2,0-3.6-0.4-4.8-1.2
			s-2.1-2.3-2.5-4.3c-1.9,1.9-4.2,3.3-7,4.2s-5.4,1.3-8,1.3c-2,0-3.8-0.3-5.6-0.8c-1.8-0.6-3.4-1.4-4.7-2.5
			c-1.4-1.1-2.5-2.5-3.3-4.1c-0.8-1.7-1.2-3.6-1.2-5.9c0-2.8,0.5-5.1,1.5-6.9c1-1.8,2.3-3.1,3.8-4.1c1.6-1,3.4-1.7,5.4-2.2
			c2-0.4,4-0.8,6-1c1.7-0.4,3.4-0.6,4.9-0.7c1.6-0.1,2.9-0.4,4.1-0.7c1.2-0.4,2.1-0.9,2.8-1.6c0.7-0.7,1-1.8,1-3.3
			c0-1.3-0.3-2.3-0.9-3.2c-0.6-0.8-1.3-1.5-2.2-1.9s-1.8-0.7-2.9-0.9c-1.1-0.1-2.1-0.2-3-0.2c-2.7,0-4.9,0.6-6.6,1.8
			c-1.7,1.2-2.7,3-2.9,5.5h-9.5c0.2-2.9,0.8-5.4,2-7.3c1.2-1.9,2.7-3.5,4.5-4.7c1.8-1.2,3.9-2,6.1-2.5c2.3-0.5,4.6-0.7,7-0.7
			c2.1,0,4.2,0.2,6.3,0.7c2.1,0.5,3.9,1.2,5.6,2.3c1.6,1.1,3,2.4,4,4.1s1.5,3.7,1.5,6.1V68.3z M798.8,55.7c-1.5,1-3.2,1.6-5.4,1.8
			c-2.1,0.2-4.2,0.5-6.4,0.9c-1,0.2-2,0.4-2.9,0.7c-0.9,0.3-1.8,0.8-2.5,1.3c-0.7,0.6-1.3,1.3-1.7,2.2c-0.4,0.9-0.6,2-0.6,3.3
			c0,1.1,0.3,2.1,0.9,2.8c0.6,0.8,1.4,1.4,2.2,1.8c0.9,0.4,1.8,0.7,2.8,0.9c1,0.2,2,0.3,2.8,0.3c1.1,0,2.2-0.1,3.4-0.4
			c1.2-0.3,2.4-0.8,3.5-1.5s2-1.6,2.7-2.7c0.7-1.1,1.1-2.4,1.1-4V55.7z"/>
		<path fill="#FFFFFF" d="M818,15.6h9.5v62.8H818V15.6z"/>
		<path fill="#FFFFFF" d="M860.6,15.6H871v62.8h-10.5V15.6z"/>
		<path fill="#FFFFFF" d="M881.6,33h9v6.7l0.2,0.2c1.4-2.5,3.3-4.5,5.7-5.9c2.3-1.4,4.9-2.2,7.8-2.2c4.7,0,8.5,1.3,11.2,3.9
			c2.7,2.6,4.1,6.5,4.1,11.6v31.2H910V49.9c-0.1-3.6-0.8-6.2-2.2-7.8c-1.3-1.6-3.4-2.4-6.3-2.4c-1.6,0-3.1,0.3-4.3,0.9
			c-1.3,0.6-2.4,1.5-3.3,2.6c-0.9,1.1-1.6,2.4-2.1,3.8c-0.5,1.5-0.8,3-0.8,4.7v26.8h-9.5V33z"/>
		<path fill="#FFFFFF" d="M935.8,63.9c0.3,2.9,1.3,5,3.2,6.2c1.8,1.2,4,1.8,6.6,1.8c0.9,0,1.9-0.1,3.1-0.2c1.1-0.1,2.2-0.4,3.2-0.8
			c1-0.4,1.8-1,2.5-1.8s0.9-1.8,0.9-3.1c-0.1-1.3-0.5-2.3-1.3-3.2c-0.8-0.8-1.9-1.5-3.2-2c-1.3-0.5-2.8-0.9-4.5-1.3
			s-3.4-0.7-5.1-1.1c-1.8-0.4-3.5-0.9-5.1-1.5c-1.6-0.6-3.1-1.4-4.4-2.4c-1.3-1-2.4-2.3-3.1-3.8c-0.8-1.6-1.2-3.5-1.2-5.8
			c0-2.5,0.6-4.5,1.7-6.2c1.1-1.7,2.6-3,4.3-4c1.8-1,3.7-1.7,5.9-2.2c2.1-0.4,4.2-0.6,6.1-0.6c2.2,0,4.4,0.3,6.4,0.7
			c2,0.5,3.9,1.3,5.5,2.4c1.6,1.1,3,2.6,4.1,4.4c1.1,1.8,1.8,3.9,2,6.5h-9.9c-0.4-2.4-1.5-4-3.1-4.8c-1.6-0.8-3.5-1.2-5.6-1.2
			c-0.7,0-1.5,0.1-2.4,0.2c-0.9,0.1-1.8,0.3-2.6,0.7c-0.8,0.3-1.5,0.8-2,1.4c-0.6,0.6-0.8,1.4-0.8,2.4c0,1.2,0.4,2.2,1.2,3
			c0.8,0.8,1.9,1.4,3.2,1.9c1.3,0.5,2.8,0.9,4.5,1.3c1.7,0.4,3.4,0.7,5.2,1.1c1.7,0.4,3.4,0.9,5.1,1.5c1.7,0.6,3.2,1.4,4.5,2.4
			c1.3,1,2.4,2.3,3.2,3.8c0.8,1.5,1.2,3.4,1.2,5.6c0,2.7-0.6,5-1.8,6.9c-1.2,1.9-2.7,3.4-4.6,4.6c-1.9,1.2-3.9,2-6.2,2.6
			s-4.5,0.8-6.8,0.8c-2.7,0-5.3-0.3-7.6-1c-2.3-0.6-4.3-1.6-6-2.9c-1.7-1.3-3-3-4-4.9c-1-2-1.5-4.3-1.5-7H935.8z"/>
		<path fill="#FFFFFF" d="M966.8,33h7.2V19.3h9.5V33h8.6v7.5h-8.6v24.3c0,1.1,0,2,0.1,2.7c0.1,0.8,0.3,1.4,0.6,1.9
			c0.3,0.5,0.8,0.9,1.4,1.2s1.4,0.4,2.5,0.4c0.7,0,1.3,0,2,0c0.7,0,1.3-0.1,2-0.3v7.7c-1.1,0.1-2.1,0.2-3.1,0.4
			c-1,0.1-2,0.2-3.1,0.2c-2.5,0-4.5-0.2-6.1-0.7c-1.5-0.5-2.7-1.2-3.6-2.2c-0.9-1-1.5-2.2-1.8-3.7c-0.3-1.5-0.5-3.1-0.5-5V40.4h-7.2
			V33z"/>
		<path fill="#FFFFFF" d="M998.3,15.6h9.5v9.5h-9.5V15.6z M998.3,33h9.5v45.5h-9.5V33z"/>
		<path fill="#FFFFFF" d="M1012.9,33h7.2V19.3h9.5V33h8.6v7.5h-8.6v24.3c0,1.1,0,2,0.1,2.7c0.1,0.8,0.3,1.4,0.6,1.9
			c0.3,0.5,0.8,0.9,1.4,1.2s1.4,0.4,2.5,0.4c0.7,0,1.3,0,2,0c0.7,0,1.3-0.1,2-0.3v7.7c-1.1,0.1-2.1,0.2-3.1,0.4
			c-1,0.1-2,0.2-3.1,0.2c-2.5,0-4.5-0.2-6.1-0.7c-1.5-0.5-2.7-1.2-3.6-2.2c-0.9-1-1.5-2.2-1.8-3.7c-0.3-1.5-0.5-3.1-0.5-5V40.4h-7.2
			V33z"/>
		<path fill="#FFFFFF" d="M1082.1,78.5h-9.4v-6.3h-0.2c-1.2,2.3-2.9,4.1-5.2,5.5c-2.3,1.4-4.7,2.1-7.1,2.1c-5.7,0-9.8-1.5-12.3-4.4
			c-2.5-3-3.8-7.4-3.8-13.4V33h9.5v27.9c0,4,0.7,6.8,2.2,8.4c1.4,1.6,3.5,2.5,6.1,2.5c2,0,3.7-0.3,5-1c1.3-0.6,2.4-1.5,3.3-2.6
			c0.8-1.1,1.4-2.4,1.8-3.9c0.4-1.5,0.5-3.2,0.5-4.9V33h9.5V78.5z"/>
		<path fill="#FFFFFF" d="M1086.9,33h7.2V19.3h9.5V33h8.6v7.5h-8.6v24.3c0,1.1,0,2,0.1,2.7c0.1,0.8,0.3,1.4,0.6,1.9
			c0.3,0.5,0.8,0.9,1.4,1.2s1.4,0.4,2.5,0.4c0.7,0,1.3,0,2,0c0.7,0,1.3-0.1,2-0.3v7.7c-1.1,0.1-2.1,0.2-3.1,0.4
			c-1,0.1-2,0.2-3.1,0.2c-2.5,0-4.5-0.2-6.1-0.7c-1.5-0.5-2.7-1.2-3.6-2.2c-0.9-1-1.5-2.2-1.8-3.7c-0.3-1.5-0.5-3.1-0.5-5V40.4h-7.2
			V33z"/>
		<path fill="#FFFFFF" d="M1125.6,58.3c0,1.8,0.2,3.5,0.7,5.1c0.5,1.6,1.2,3.1,2.1,4.3c0.9,1.2,2.1,2.2,3.6,2.9
			c1.4,0.7,3.2,1.1,5.2,1.1c2.8,0,5-0.6,6.7-1.9c1.7-1.3,3-3.2,3.8-5.7h9c-0.5,2.5-1.4,4.7-2.6,6.6c-1.2,1.9-2.7,3.6-4.4,4.9
			c-1.7,1.3-3.7,2.3-5.8,3c-2.1,0.7-4.4,1-6.7,1c-3.4,0-6.4-0.6-9-1.8c-2.6-1.2-4.8-2.8-6.6-4.9c-1.8-2.1-3.2-4.6-4.1-7.6
			c-0.9-2.9-1.4-6.2-1.4-9.7c0-3.2,0.5-6.3,1.5-9.2c1-2.9,2.4-5.5,4.2-7.7c1.8-2.2,4-3.9,6.6-5.2c2.6-1.3,5.5-1.9,8.7-1.9
			c3.4,0,6.5,0.7,9.2,2.2c2.7,1.5,4.9,3.5,6.7,5.9c1.8,2.5,3.1,5.3,3.9,8.5c0.8,3.2,1,6.5,0.6,9.9H1125.6z M1147.8,51.7
			c-0.1-1.6-0.4-3.1-1-4.6c-0.5-1.5-1.3-2.7-2.2-3.8c-0.9-1.1-2-2-3.3-2.6c-1.3-0.7-2.8-1-4.4-1c-1.7,0-3.2,0.3-4.6,0.9
			c-1.4,0.6-2.5,1.5-3.5,2.6c-1,1.1-1.8,2.4-2.3,3.8c-0.6,1.5-0.9,3.1-1,4.8H1147.8z"/>
		<path fill="#FFFFFF" d="M1205.9,79.7c-3.5,0-6.5-0.6-9.2-1.8c-2.7-1.2-5-2.9-6.9-5c-1.9-2.1-3.3-4.6-4.3-7.6
			c-1-2.9-1.5-6.2-1.5-9.7c0-3.5,0.5-6.7,1.5-9.6c1-2.9,2.4-5.5,4.3-7.6c1.9-2.1,4.2-3.8,6.9-5c2.7-1.2,5.8-1.8,9.2-1.8
			c3.5,0,6.5,0.6,9.2,1.8c2.7,1.2,5,2.9,6.9,5c1.9,2.1,3.3,4.6,4.3,7.6c1,2.9,1.5,6.1,1.5,9.6c0,3.5-0.5,6.7-1.5,9.7
			c-1,2.9-2.4,5.5-4.3,7.6s-4.2,3.8-6.9,5C1212.4,79.1,1209.3,79.7,1205.9,79.7z M1205.9,71.8c2.1,0,4-0.5,5.5-1.4
			c1.6-0.9,2.8-2.2,3.8-3.7c1-1.5,1.7-3.2,2.2-5.1c0.5-1.9,0.7-3.9,0.7-5.9c0-1.9-0.2-3.9-0.7-5.8c-0.5-1.9-1.2-3.7-2.2-5.1
			s-2.3-2.7-3.8-3.7c-1.6-0.9-3.4-1.4-5.5-1.4c-2.1,0-4,0.5-5.5,1.4c-1.6,0.9-2.8,2.2-3.8,3.7s-1.7,3.2-2.2,5.1
			c-0.5,1.9-0.7,3.9-0.7,5.8c0,2,0.2,3.9,0.7,5.9c0.5,1.9,1.2,3.6,2.2,5.1c1,1.5,2.3,2.8,3.8,3.7
			C1201.9,71.3,1203.7,71.8,1205.9,71.8z"/>
		<path fill="#FFFFFF" d="M1230.4,33h7.1v-3.8c0-2.9,0.3-5.2,1-7c0.7-1.8,1.6-3.2,2.7-4.1c1.1-1,2.4-1.6,3.8-1.9
			c1.4-0.3,2.9-0.5,4.5-0.5c3.1,0,5.3,0.2,6.7,0.6v7.8c-0.6-0.2-1.3-0.3-2-0.4c-0.7-0.1-1.5-0.1-2.5-0.1c-1.3,0-2.4,0.3-3.3,1
			c-0.9,0.6-1.4,1.9-1.4,3.8V33h8.1v7.5h-8.1v38h-9.5v-38h-7.1V33z"/>
		<path fill="#FFFFFF" d="M542.6,121.2h11.1l23,62.8h-11.2l-5.6-16.6h-23.8l-5.6,16.6h-10.8L542.6,121.2z M538.9,159.1h18.2l-8.9-27
			h-0.3L538.9,159.1z"/>
		<path fill="#FFFFFF" d="M580.4,121.2h9.5v62.8h-9.5V121.2z"/>
		<path fill="#FFFFFF" d="M599.6,121.2h9.5v62.8h-9.5V121.2z"/>
		<path fill="#FFFFFF" d="M626,163.9c0,1.8,0.2,3.5,0.7,5.1c0.5,1.6,1.2,3.1,2.1,4.3c0.9,1.2,2.1,2.2,3.6,2.9
			c1.4,0.7,3.2,1.1,5.2,1.1c2.8,0,5-0.6,6.7-1.9c1.7-1.3,3-3.2,3.8-5.7h9c-0.5,2.5-1.4,4.7-2.6,6.6c-1.2,1.9-2.7,3.6-4.4,4.9
			c-1.7,1.3-3.7,2.3-5.8,3c-2.1,0.7-4.4,1-6.7,1c-3.4,0-6.4-0.6-9-1.8c-2.6-1.2-4.8-2.8-6.6-4.9c-1.8-2.1-3.2-4.6-4.1-7.6
			c-0.9-2.9-1.4-6.2-1.4-9.7c0-3.2,0.5-6.3,1.5-9.2c1-2.9,2.4-5.5,4.2-7.7c1.8-2.2,4-3.9,6.6-5.2c2.6-1.3,5.5-1.9,8.7-1.9
			c3.4,0,6.5,0.7,9.2,2.2c2.7,1.5,4.9,3.5,6.7,5.9c1.8,2.5,3.1,5.3,3.9,8.5c0.8,3.2,1,6.5,0.6,9.9H626z M648.3,157.3
			c-0.1-1.6-0.4-3.1-1-4.6c-0.5-1.5-1.3-2.7-2.2-3.8c-0.9-1.1-2-2-3.3-2.6c-1.3-0.7-2.8-1-4.4-1c-1.7,0-3.2,0.3-4.6,0.9
			c-1.4,0.6-2.5,1.5-3.5,2.6c-1,1.1-1.8,2.4-2.3,3.8c-0.6,1.5-0.9,3.1-1,4.8H648.3z"/>
		<path fill="#FFFFFF" d="M664.1,138.6h8.9v8.8h0.2c0.3-1.2,0.8-2.4,1.6-3.6c0.8-1.2,1.8-2.2,2.9-3.2c1.1-1,2.4-1.7,3.8-2.3
			c1.4-0.6,2.8-0.9,4.3-0.9c1.1,0,1.9,0,2.3,0.1c0.4,0.1,0.8,0.1,1.3,0.2v9.7c-0.7-0.1-1.4-0.2-2-0.3c-0.7-0.1-1.4-0.1-2-0.1
			c-1.6,0-3.1,0.3-4.6,1c-1.4,0.7-2.7,1.7-3.7,3s-1.9,2.9-2.5,4.9c-0.6,1.9-0.9,4.2-0.9,6.7v21.6h-9.5V138.6z"/>
		<path fill="#FFFFFF" d="M732.6,181.7c0,6.9-1.8,12-5.5,15.4c-3.7,3.4-8.9,5.1-15.8,5.1c-2.2,0-4.4-0.2-6.6-0.7
			c-2.2-0.5-4.2-1.3-6-2.4c-1.8-1.1-3.3-2.6-4.6-4.4c-1.2-1.8-2-4-2.2-6.7h9.5c0.3,1.4,0.8,2.6,1.4,3.4c0.7,0.9,1.5,1.6,2.4,2.1
			c0.9,0.5,1.9,0.8,3.1,1c1.1,0.1,2.3,0.2,3.5,0.2c3.8,0,6.7-1,8.4-3c1.8-2,2.7-4.9,2.7-8.6v-7h-0.2c-1.3,2.5-3.2,4.5-5.5,5.9
			c-2.3,1.4-4.8,2.1-7.5,2.1c-3.5,0-6.4-0.6-8.8-1.9c-2.4-1.3-4.4-3-6-5.2c-1.6-2.2-2.7-4.7-3.5-7.6c-0.7-2.9-1.1-6-1.1-9.2
			c0-3,0.4-6,1.3-8.7c0.9-2.8,2.2-5.2,3.8-7.3c1.7-2.1,3.7-3.7,6.1-5c2.4-1.2,5.2-1.8,8.2-1.8c2.7,0,5.2,0.6,7.5,1.8
			c2.3,1.2,4,3.1,5.3,5.7h0.2v-6.2h9.5V181.7z M711.5,176.1c2.1,0,3.9-0.5,5.4-1.4c1.5-0.9,2.7-2.1,3.6-3.6c0.9-1.5,1.6-3.2,2-5.1
			c0.4-1.9,0.6-3.8,0.6-5.8c0-1.9-0.2-3.8-0.7-5.6c-0.4-1.8-1.1-3.4-2-4.8c-0.9-1.4-2.1-2.5-3.6-3.3c-1.5-0.8-3.2-1.2-5.3-1.2
			c-2.1,0-3.9,0.5-5.4,1.4c-1.5,0.9-2.6,2.2-3.5,3.7c-0.9,1.5-1.5,3.2-1.9,5.1c-0.4,1.9-0.6,3.8-0.6,5.7c0,1.9,0.2,3.7,0.7,5.5
			c0.4,1.8,1.1,3.4,2,4.8c0.9,1.4,2.1,2.6,3.5,3.4S709.5,176.1,711.5,176.1z"/>
		<path fill="#FFFFFF" d="M736.5,138.6H747l11.3,34h0.2l11-34h9.9l-16.8,48c-0.8,2.1-1.5,4-2.3,5.9c-0.8,1.9-1.7,3.5-2.8,5
			c-1.1,1.4-2.4,2.6-4.1,3.4c-1.6,0.8-3.7,1.3-6.2,1.3c-2.2,0-4.4-0.2-6.6-0.5v-8.4c0.8,0.1,1.5,0.2,2.3,0.4
			c0.7,0.1,1.5,0.2,2.3,0.2c1.1,0,2-0.1,2.8-0.4c0.7-0.3,1.3-0.7,1.8-1.3c0.5-0.6,0.9-1.2,1.2-2c0.3-0.8,0.6-1.6,0.9-2.6l1.1-3.5
			L736.5,138.6z"/>
		<path fill="#FFFFFF" d="M842.3,173.9c0,1.2,0.2,2.1,0.5,2.6c0.3,0.5,0.9,0.8,1.8,0.8c0.3,0,0.6,0,1,0c0.4,0,0.8-0.1,1.3-0.2v7
			c-0.3,0.1-0.8,0.2-1.3,0.4c-0.5,0.1-1.1,0.3-1.6,0.4c-0.6,0.1-1.1,0.2-1.7,0.3c-0.6,0.1-1,0.1-1.4,0.1c-2,0-3.6-0.4-4.8-1.2
			s-2.1-2.3-2.5-4.3c-1.9,1.9-4.2,3.3-7,4.2s-5.4,1.3-8,1.3c-2,0-3.8-0.3-5.6-0.8c-1.8-0.6-3.4-1.4-4.7-2.5
			c-1.4-1.1-2.5-2.5-3.3-4.1c-0.8-1.7-1.2-3.6-1.2-5.9c0-2.8,0.5-5.1,1.5-6.9c1-1.8,2.3-3.1,3.8-4.1c1.6-1,3.4-1.7,5.4-2.2
			c2-0.4,4-0.8,6-1c1.7-0.4,3.4-0.6,4.9-0.7c1.6-0.1,2.9-0.4,4.1-0.7c1.2-0.4,2.1-0.9,2.8-1.6c0.7-0.7,1-1.8,1-3.3
			c0-1.3-0.3-2.3-0.9-3.2c-0.6-0.8-1.3-1.5-2.2-1.9s-1.8-0.7-2.9-0.9c-1.1-0.1-2.1-0.2-3-0.2c-2.7,0-4.9,0.6-6.6,1.8
			c-1.7,1.2-2.7,3-2.9,5.5h-9.5c0.2-2.9,0.8-5.4,2-7.3c1.2-1.9,2.7-3.5,4.5-4.7c1.8-1.2,3.9-2,6.1-2.5c2.3-0.5,4.6-0.7,7-0.7
			c2.1,0,4.2,0.2,6.3,0.7c2.1,0.5,3.9,1.2,5.6,2.3c1.6,1.1,3,2.4,4,4.1s1.5,3.7,1.5,6.1V173.9z M832.8,161.3c-1.5,1-3.2,1.6-5.4,1.8
			c-2.1,0.2-4.2,0.5-6.4,0.9c-1,0.2-2,0.4-2.9,0.7c-0.9,0.3-1.8,0.8-2.5,1.3c-0.7,0.6-1.3,1.3-1.7,2.2c-0.4,0.9-0.6,2-0.6,3.3
			c0,1.1,0.3,2.1,0.9,2.8c0.6,0.8,1.4,1.4,2.2,1.8c0.9,0.4,1.8,0.7,2.8,0.9s2,0.3,2.8,0.3c1.1,0,2.2-0.1,3.4-0.4
			c1.2-0.3,2.4-0.8,3.5-1.5s2-1.6,2.7-2.7c0.7-1.1,1.1-2.4,1.1-4V161.3z"/>
		<path fill="#FFFFFF" d="M851.7,138.6h9v6.7l0.2,0.2c1.4-2.5,3.3-4.5,5.7-5.9c2.3-1.4,4.9-2.2,7.8-2.2c4.7,0,8.5,1.3,11.2,3.9
			c2.7,2.6,4.1,6.5,4.1,11.6v31.2h-9.5v-28.6c-0.1-3.6-0.8-6.2-2.2-7.8c-1.3-1.6-3.4-2.4-6.3-2.4c-1.6,0-3.1,0.3-4.3,0.9
			c-1.3,0.6-2.4,1.5-3.3,2.6c-0.9,1.1-1.6,2.4-2.1,3.8c-0.5,1.5-0.8,3-0.8,4.7v26.8h-9.5V138.6z"/>
		<path fill="#FFFFFF" d="M939.4,184.1h-9v-6.2h-0.2c-1.3,2.6-3.1,4.5-5.6,5.7c-2.5,1.1-5,1.7-7.8,1.7c-3.4,0-6.4-0.6-8.9-1.9
			c-2.5-1.3-4.6-3-6.3-5.1c-1.7-2.2-2.9-4.7-3.8-7.7c-0.8-3-1.3-6.1-1.3-9.5c0-4.1,0.5-7.7,1.6-10.6c1.1-3,2.5-5.5,4.2-7.4
			s3.8-3.4,6-4.3c2.3-0.9,4.6-1.4,6.9-1.4c1.3,0,2.7,0.1,4.1,0.4c1.4,0.3,2.7,0.7,4,1.3c1.3,0.6,2.5,1.3,3.6,2.2
			c1.1,0.9,2,2,2.7,3.2h0.2v-23.2h9.5V184.1z M906.2,161.8c0,1.9,0.2,3.8,0.7,5.7c0.5,1.9,1.2,3.5,2.2,5c1,1.5,2.2,2.6,3.7,3.5
			s3.3,1.3,5.4,1.3c2.1,0,3.9-0.5,5.5-1.4c1.5-0.9,2.8-2.2,3.8-3.7c1-1.5,1.7-3.2,2.2-5.1c0.5-1.9,0.7-3.9,0.7-5.9
			c0-5-1.1-9-3.2-11.8c-2.1-2.8-5.1-4.2-8.7-4.2c-2.2,0-4.1,0.5-5.6,1.5c-1.5,1-2.8,2.2-3.8,3.8c-1,1.6-1.7,3.3-2.1,5.3
			C906.4,157.7,906.2,159.7,906.2,161.8z"/>
		<path fill="#FFFFFF" d="M526.6,226.8h10.5v62.8h-10.5V226.8z"/>
		<path fill="#FFFFFF" d="M547.6,244.2h9v6.7l0.2,0.2c1.4-2.5,3.3-4.5,5.7-5.9c2.3-1.4,4.9-2.2,7.8-2.2c4.7,0,8.5,1.3,11.2,3.9
			c2.7,2.6,4.1,6.5,4.1,11.6v31.2H576v-28.6c-0.1-3.6-0.8-6.2-2.2-7.8c-1.3-1.6-3.4-2.4-6.3-2.4c-1.6,0-3.1,0.3-4.3,0.9
			c-1.3,0.6-2.4,1.5-3.3,2.6c-0.9,1.1-1.6,2.4-2.1,3.8c-0.5,1.5-0.8,3-0.8,4.7v26.8h-9.5V244.2z"/>
		<path fill="#FFFFFF" d="M590.4,244.2h7.1v-3.8c0-2.9,0.3-5.2,1-7c0.7-1.8,1.6-3.2,2.7-4.1c1.1-1,2.4-1.6,3.8-1.9
			c1.4-0.3,2.9-0.5,4.5-0.5c3.1,0,5.3,0.2,6.7,0.6v7.8c-0.6-0.2-1.3-0.3-2-0.4c-0.7-0.1-1.5-0.1-2.5-0.1c-1.3,0-2.4,0.3-3.3,1
			c-0.9,0.6-1.4,1.9-1.4,3.8v4.7h8.1v7.5H607v38h-9.5v-38h-7.1V244.2z"/>
		<path fill="#FFFFFF" d="M627.5,269.5c0,1.8,0.2,3.5,0.7,5.1c0.5,1.6,1.2,3.1,2.1,4.3c0.9,1.2,2.1,2.2,3.6,2.9
			c1.4,0.7,3.2,1.1,5.2,1.1c2.8,0,5-0.6,6.7-1.9c1.7-1.3,3-3.2,3.8-5.7h9c-0.5,2.5-1.4,4.7-2.6,6.6c-1.2,1.9-2.7,3.6-4.4,4.9
			c-1.7,1.3-3.7,2.3-5.8,3c-2.1,0.7-4.4,1-6.7,1c-3.4,0-6.4-0.6-9-1.8c-2.6-1.2-4.8-2.8-6.6-4.9c-1.8-2.1-3.2-4.6-4.1-7.6
			c-0.9-2.9-1.4-6.2-1.4-9.7c0-3.2,0.5-6.3,1.5-9.2c1-2.9,2.4-5.5,4.2-7.7c1.8-2.2,4-3.9,6.6-5.2c2.6-1.3,5.5-1.9,8.7-1.9
			c3.4,0,6.5,0.7,9.2,2.2c2.7,1.5,4.9,3.5,6.7,5.9c1.8,2.5,3.1,5.3,3.9,8.5c0.8,3.2,1,6.5,0.6,9.9H627.5z M649.8,262.9
			c-0.1-1.6-0.4-3.1-1-4.6c-0.5-1.5-1.3-2.7-2.2-3.8c-0.9-1.1-2-2-3.3-2.6c-1.3-0.7-2.8-1-4.4-1c-1.7,0-3.2,0.3-4.6,0.9
			c-1.4,0.6-2.5,1.5-3.5,2.6c-1,1.1-1.8,2.4-2.3,3.8c-0.6,1.5-0.9,3.1-1,4.8H649.8z"/>
		<path fill="#FFFFFF" d="M694.8,259.4c-0.4-2.8-1.5-4.9-3.2-6.4c-1.8-1.4-4-2.2-6.6-2.2c-1.2,0-2.5,0.2-3.9,0.7
			c-1.4,0.4-2.7,1.3-3.8,2.5c-1.2,1.2-2.1,2.9-2.9,5c-0.8,2.1-1.2,4.9-1.2,8.4c0,1.9,0.2,3.8,0.6,5.6c0.4,1.9,1.1,3.5,2,5
			c0.9,1.5,2.1,2.7,3.6,3.6c1.4,0.9,3.2,1.4,5.3,1.4c2.8,0,5.1-0.9,6.9-2.7c1.8-1.8,2.9-4.4,3.4-7.7h9.5c-0.9,5.9-3,10.5-6.4,13.6
			c-3.4,3.1-7.8,4.7-13.4,4.7c-3.4,0-6.4-0.6-9-1.8c-2.6-1.2-4.8-2.8-6.6-4.9c-1.8-2.1-3.1-4.6-4.1-7.4c-0.9-2.9-1.4-6-1.4-9.3
			c0-3.4,0.4-6.6,1.3-9.6c0.9-3,2.2-5.6,4-7.8c1.8-2.2,4-3.9,6.6-5.2c2.6-1.3,5.8-1.9,9.3-1.9c2.5,0,4.9,0.3,7.1,1
			c2.3,0.7,4.3,1.7,6,3s3.2,3.1,4.3,5.1c1.1,2.1,1.8,4.5,2,7.3H694.8z"/>
		<path fill="#FFFFFF" d="M706.9,244.2h7.2v-13.6h9.5v13.6h8.6v7.5h-8.6v24.3c0,1.1,0,2,0.1,2.7c0.1,0.8,0.3,1.4,0.6,1.9
			c0.3,0.5,0.8,0.9,1.4,1.2s1.4,0.4,2.5,0.4c0.7,0,1.3,0,2,0c0.7,0,1.3-0.1,2-0.3v7.7c-1.1,0.1-2.1,0.2-3.1,0.4
			c-1,0.1-2,0.2-3.1,0.2c-2.5,0-4.5-0.3-6.1-0.7c-1.5-0.5-2.7-1.2-3.6-2.2c-0.9-1-1.5-2.2-1.8-3.7c-0.3-1.5-0.5-3.1-0.5-5v-26.8
			h-7.2V244.2z"/>
		<path fill="#FFFFFF" d="M738.4,226.8h9.5v9.5h-9.5V226.8z M738.4,244.2h9.5v45.5h-9.5V244.2z"/>
		<path fill="#FFFFFF" d="M777.2,290.9c-3.5,0-6.5-0.6-9.2-1.8c-2.7-1.2-5-2.9-6.9-5c-1.9-2.1-3.3-4.6-4.3-7.6
			c-1-2.9-1.5-6.2-1.5-9.7c0-3.5,0.5-6.7,1.5-9.6c1-2.9,2.4-5.5,4.3-7.6c1.9-2.1,4.2-3.8,6.9-5c2.7-1.2,5.8-1.8,9.2-1.8
			c3.5,0,6.5,0.6,9.2,1.8c2.7,1.2,5,2.9,6.9,5s3.3,4.6,4.3,7.6c1,2.9,1.5,6.1,1.5,9.6c0,3.5-0.5,6.7-1.5,9.7c-1,2.9-2.4,5.5-4.3,7.6
			s-4.2,3.8-6.9,5C783.7,290.3,780.6,290.9,777.2,290.9z M777.2,283c2.1,0,4-0.5,5.5-1.4c1.6-0.9,2.8-2.2,3.8-3.7
			c1-1.5,1.7-3.2,2.2-5.1c0.5-1.9,0.7-3.9,0.7-5.9c0-1.9-0.2-3.9-0.7-5.8c-0.5-1.9-1.2-3.7-2.2-5.1s-2.3-2.7-3.8-3.7
			c-1.6-0.9-3.4-1.4-5.5-1.4c-2.1,0-4,0.5-5.5,1.4c-1.6,0.9-2.8,2.2-3.8,3.7s-1.7,3.2-2.2,5.1c-0.5,1.9-0.7,3.9-0.7,5.8
			c0,2,0.2,3.9,0.7,5.9c0.5,1.9,1.2,3.6,2.2,5.1c1,1.5,2.3,2.8,3.8,3.7C773.2,282.5,775,283,777.2,283z"/>
		<path fill="#FFFFFF" d="M844,289.7h-9.4v-6.3h-0.2c-1.2,2.3-2.9,4.1-5.2,5.5c-2.3,1.4-4.7,2.1-7.1,2.1c-5.7,0-9.8-1.5-12.3-4.4
			c-2.5-3-3.8-7.4-3.8-13.4v-28.9h9.5v27.9c0,4,0.7,6.8,2.2,8.4c1.4,1.6,3.5,2.5,6.1,2.5c2,0,3.7-0.3,5-1c1.3-0.6,2.4-1.5,3.3-2.6
			c0.8-1.1,1.4-2.4,1.8-3.9c0.4-1.5,0.5-3.2,0.5-4.9v-26.4h9.5V289.7z"/>
		<path fill="#FFFFFF" d="M860.3,275.1c0.3,2.9,1.3,5,3.2,6.2c1.8,1.2,4,1.8,6.6,1.8c0.9,0,1.9-0.1,3.1-0.2c1.1-0.1,2.2-0.4,3.2-0.8
			c1-0.4,1.8-1,2.5-1.8s0.9-1.8,0.9-3.1c-0.1-1.3-0.5-2.3-1.3-3.2c-0.8-0.8-1.9-1.5-3.2-2c-1.3-0.5-2.8-0.9-4.5-1.3
			c-1.7-0.4-3.4-0.7-5.1-1.1c-1.8-0.4-3.5-0.9-5.1-1.5c-1.6-0.6-3.1-1.4-4.4-2.4c-1.3-1-2.4-2.3-3.1-3.8c-0.8-1.6-1.2-3.5-1.2-5.8
			c0-2.5,0.6-4.5,1.7-6.2c1.1-1.7,2.6-3,4.3-4c1.8-1,3.7-1.7,5.9-2.2c2.1-0.4,4.2-0.6,6.1-0.6c2.2,0,4.4,0.2,6.4,0.7
			c2,0.5,3.9,1.3,5.5,2.4c1.6,1.1,3,2.6,4.1,4.4c1.1,1.8,1.8,3.9,2,6.5h-9.9c-0.4-2.4-1.5-4-3.1-4.8c-1.6-0.8-3.5-1.2-5.6-1.2
			c-0.7,0-1.5,0.1-2.4,0.2c-0.9,0.1-1.8,0.3-2.6,0.7c-0.8,0.3-1.5,0.8-2,1.4c-0.6,0.6-0.8,1.4-0.8,2.4c0,1.2,0.4,2.2,1.2,3
			c0.8,0.8,1.9,1.4,3.2,1.9c1.3,0.5,2.8,0.9,4.5,1.3c1.7,0.4,3.4,0.7,5.2,1.1c1.7,0.4,3.4,0.9,5.1,1.5c1.7,0.6,3.2,1.4,4.5,2.4
			c1.3,1,2.4,2.3,3.2,3.8c0.8,1.5,1.2,3.4,1.2,5.6c0,2.7-0.6,5-1.8,6.9c-1.2,1.9-2.7,3.4-4.6,4.6c-1.9,1.2-3.9,2-6.2,2.6
			c-2.3,0.5-4.5,0.8-6.8,0.8c-2.7,0-5.3-0.3-7.6-1c-2.3-0.6-4.3-1.6-6-2.9c-1.7-1.3-3-3-4-4.9c-1-2-1.5-4.3-1.5-7H860.3z"/>
		<path fill="#FFFFFF" d="M919.2,226.8h24.7c4.6,0,8.5,0.8,11.9,2.5c3.3,1.6,6.1,3.9,8.2,6.7c2.1,2.8,3.7,6.2,4.7,10
			c1,3.8,1.5,7.9,1.5,12.2c0,4.3-0.5,8.4-1.5,12.2c-1,3.8-2.6,7.1-4.7,10c-2.1,2.8-4.8,5.1-8.2,6.7c-3.3,1.6-7.3,2.5-11.9,2.5h-24.7
			V226.8z M929.6,280.7h10.3c4.1,0,7.4-0.6,10-1.7c2.6-1.1,4.6-2.7,6.1-4.8c1.5-2,2.5-4.4,3-7.1c0.5-2.7,0.8-5.7,0.8-8.8
			s-0.3-6.1-0.8-8.8c-0.5-2.7-1.5-5.1-3-7.1c-1.5-2-3.5-3.6-6.1-4.8c-2.6-1.1-5.9-1.7-10-1.7h-10.3V280.7z"/>
		<path fill="#FFFFFF" d="M977.6,226.8h9.5v9.5h-9.5V226.8z M977.6,244.2h9.5v45.5h-9.5V244.2z"/>
		<path fill="#FFFFFF" d="M1003.7,275.1c0.3,2.9,1.3,5,3.2,6.2c1.8,1.2,4,1.8,6.6,1.8c0.9,0,1.9-0.1,3.1-0.2
			c1.1-0.1,2.2-0.4,3.2-0.8c1-0.4,1.8-1,2.5-1.8s0.9-1.8,0.9-3.1c-0.1-1.3-0.5-2.3-1.3-3.2c-0.8-0.8-1.9-1.5-3.2-2
			c-1.3-0.5-2.8-0.9-4.5-1.3c-1.7-0.4-3.4-0.7-5.1-1.1c-1.8-0.4-3.5-0.9-5.1-1.5c-1.6-0.6-3.1-1.4-4.4-2.4c-1.3-1-2.4-2.3-3.1-3.8
			c-0.8-1.6-1.2-3.5-1.2-5.8c0-2.5,0.6-4.5,1.7-6.2c1.1-1.7,2.6-3,4.3-4c1.8-1,3.7-1.7,5.9-2.2c2.1-0.4,4.2-0.6,6.1-0.6
			c2.2,0,4.4,0.2,6.4,0.7c2,0.5,3.9,1.3,5.5,2.4c1.6,1.1,3,2.6,4.1,4.4c1.1,1.8,1.8,3.9,2,6.5h-9.9c-0.4-2.4-1.5-4-3.1-4.8
			c-1.6-0.8-3.5-1.2-5.6-1.2c-0.7,0-1.5,0.1-2.4,0.2c-0.9,0.1-1.8,0.3-2.6,0.7c-0.8,0.3-1.5,0.8-2,1.4c-0.6,0.6-0.8,1.4-0.8,2.4
			c0,1.2,0.4,2.2,1.2,3c0.8,0.8,1.9,1.4,3.2,1.9c1.3,0.5,2.8,0.9,4.5,1.3c1.7,0.4,3.4,0.7,5.2,1.1c1.7,0.4,3.4,0.9,5.1,1.5
			c1.7,0.6,3.2,1.4,4.5,2.4c1.3,1,2.4,2.3,3.2,3.8c0.8,1.5,1.2,3.4,1.2,5.6c0,2.7-0.6,5-1.8,6.9c-1.2,1.9-2.7,3.4-4.6,4.6
			c-1.9,1.2-3.9,2-6.2,2.6c-2.3,0.5-4.5,0.8-6.8,0.8c-2.7,0-5.3-0.3-7.6-1c-2.3-0.6-4.3-1.6-6-2.9c-1.7-1.3-3-3-4-4.9
			c-1-2-1.5-4.3-1.5-7H1003.7z"/>
		<path fill="#FFFFFF" d="M1046.4,269.5c0,1.8,0.2,3.5,0.7,5.1c0.5,1.6,1.2,3.1,2.1,4.3c0.9,1.2,2.1,2.2,3.6,2.9
			c1.4,0.7,3.2,1.1,5.2,1.1c2.8,0,5-0.6,6.7-1.9c1.7-1.3,3-3.2,3.8-5.7h9c-0.5,2.5-1.4,4.7-2.6,6.6c-1.2,1.9-2.7,3.6-4.4,4.9
			c-1.7,1.3-3.7,2.3-5.8,3c-2.1,0.7-4.4,1-6.7,1c-3.4,0-6.4-0.6-9-1.8c-2.6-1.2-4.8-2.8-6.6-4.9c-1.8-2.1-3.2-4.6-4.1-7.6
			c-0.9-2.9-1.4-6.2-1.4-9.7c0-3.2,0.5-6.3,1.5-9.2c1-2.9,2.4-5.5,4.2-7.7c1.8-2.2,4-3.9,6.6-5.2c2.6-1.3,5.5-1.9,8.7-1.9
			c3.4,0,6.5,0.7,9.2,2.2c2.7,1.5,4.9,3.5,6.7,5.9c1.8,2.5,3.1,5.3,3.9,8.5c0.8,3.2,1,6.5,0.6,9.9H1046.4z M1068.7,262.9
			c-0.1-1.6-0.4-3.1-1-4.6c-0.5-1.5-1.3-2.7-2.2-3.8c-0.9-1.1-2-2-3.3-2.6c-1.3-0.7-2.8-1-4.4-1c-1.7,0-3.2,0.3-4.6,0.9
			c-1.4,0.6-2.5,1.5-3.5,2.6c-1,1.1-1.8,2.4-2.3,3.8c-0.6,1.5-0.9,3.1-1,4.8H1068.7z"/>
		<path fill="#FFFFFF" d="M1120.8,279.5c0,1.2,0.2,2.1,0.5,2.6c0.3,0.5,0.9,0.8,1.8,0.8c0.3,0,0.6,0,1,0c0.4,0,0.8-0.1,1.3-0.2v7
			c-0.3,0.1-0.8,0.2-1.3,0.4c-0.5,0.1-1.1,0.3-1.6,0.4c-0.6,0.1-1.1,0.2-1.7,0.3c-0.6,0.1-1,0.1-1.4,0.1c-2,0-3.6-0.4-4.8-1.2
			s-2.1-2.3-2.5-4.3c-1.9,1.9-4.2,3.3-7,4.2s-5.4,1.3-8,1.3c-2,0-3.8-0.3-5.6-0.8c-1.8-0.6-3.4-1.4-4.7-2.5
			c-1.4-1.1-2.5-2.5-3.3-4.1c-0.8-1.7-1.2-3.6-1.2-5.9c0-2.8,0.5-5.1,1.5-6.9c1-1.8,2.3-3.1,3.8-4.1c1.6-1,3.4-1.7,5.4-2.2
			c2-0.4,4-0.8,6-1c1.7-0.4,3.4-0.6,4.9-0.7c1.6-0.1,2.9-0.4,4.1-0.7c1.2-0.4,2.1-0.9,2.8-1.6c0.7-0.7,1-1.8,1-3.3
			c0-1.3-0.3-2.3-0.9-3.2c-0.6-0.8-1.3-1.5-2.2-1.9s-1.8-0.7-2.9-0.9c-1.1-0.1-2.1-0.2-3-0.2c-2.7,0-4.9,0.6-6.6,1.8
			c-1.7,1.2-2.7,3-2.9,5.5h-9.5c0.2-2.9,0.8-5.4,2-7.3c1.2-1.9,2.7-3.5,4.5-4.7c1.8-1.2,3.9-2,6.1-2.5c2.3-0.5,4.6-0.7,7-0.7
			c2.1,0,4.2,0.2,6.3,0.7c2.1,0.5,3.9,1.2,5.6,2.3c1.6,1.1,3,2.4,4,4.1c1,1.7,1.5,3.7,1.5,6.1V279.5z M1111.2,266.9
			c-1.5,1-3.2,1.6-5.4,1.8c-2.1,0.2-4.2,0.5-6.4,0.9c-1,0.2-2,0.4-2.9,0.7c-0.9,0.3-1.8,0.8-2.5,1.3c-0.7,0.6-1.3,1.3-1.7,2.2
			c-0.4,0.9-0.6,2-0.6,3.3c0,1.1,0.3,2.1,0.9,2.8c0.6,0.8,1.4,1.4,2.2,1.8c0.9,0.4,1.8,0.7,2.8,0.9s2,0.3,2.8,0.3
			c1.1,0,2.2-0.1,3.4-0.4c1.2-0.3,2.4-0.8,3.5-1.5s2-1.6,2.7-2.7c0.7-1.1,1.1-2.4,1.1-4V266.9z"/>
		<path fill="#FFFFFF" d="M1137.3,275.1c0.3,2.9,1.3,5,3.2,6.2c1.8,1.2,4,1.8,6.6,1.8c0.9,0,1.9-0.1,3.1-0.2
			c1.1-0.1,2.2-0.4,3.2-0.8c1-0.4,1.8-1,2.5-1.8s0.9-1.8,0.9-3.1c-0.1-1.3-0.5-2.3-1.3-3.2c-0.8-0.8-1.9-1.5-3.2-2
			c-1.3-0.5-2.8-0.9-4.5-1.3c-1.7-0.4-3.4-0.7-5.1-1.1c-1.8-0.4-3.5-0.9-5.1-1.5c-1.6-0.6-3.1-1.4-4.4-2.4c-1.3-1-2.4-2.3-3.1-3.8
			c-0.8-1.6-1.2-3.5-1.2-5.8c0-2.5,0.6-4.5,1.7-6.2c1.1-1.7,2.6-3,4.3-4c1.8-1,3.7-1.7,5.9-2.2c2.1-0.4,4.2-0.6,6.1-0.6
			c2.2,0,4.4,0.2,6.4,0.7c2,0.5,3.9,1.3,5.5,2.4c1.6,1.1,3,2.6,4.1,4.4c1.1,1.8,1.8,3.9,2,6.5h-9.9c-0.4-2.4-1.5-4-3.1-4.8
			c-1.6-0.8-3.5-1.2-5.6-1.2c-0.7,0-1.5,0.1-2.4,0.2c-0.9,0.1-1.8,0.3-2.6,0.7c-0.8,0.3-1.5,0.8-2,1.4c-0.6,0.6-0.8,1.4-0.8,2.4
			c0,1.2,0.4,2.2,1.2,3c0.8,0.8,1.9,1.4,3.2,1.9c1.3,0.5,2.8,0.9,4.5,1.3c1.7,0.4,3.4,0.7,5.2,1.1c1.7,0.4,3.4,0.9,5.1,1.5
			c1.7,0.6,3.2,1.4,4.5,2.4c1.3,1,2.4,2.3,3.2,3.8c0.8,1.5,1.2,3.4,1.2,5.6c0,2.7-0.6,5-1.8,6.9c-1.2,1.9-2.7,3.4-4.6,4.6
			c-1.9,1.2-3.9,2-6.2,2.6c-2.3,0.5-4.5,0.8-6.8,0.8c-2.7,0-5.3-0.3-7.6-1c-2.3-0.6-4.3-1.6-6-2.9c-1.7-1.3-3-3-4-4.9
			c-1-2-1.5-4.3-1.5-7H1137.3z"/>
		<path fill="#FFFFFF" d="M1180,269.5c0,1.8,0.2,3.5,0.7,5.1c0.5,1.6,1.2,3.1,2.1,4.3c0.9,1.2,2.1,2.2,3.6,2.9
			c1.4,0.7,3.2,1.1,5.2,1.1c2.8,0,5-0.6,6.7-1.9c1.7-1.3,3-3.2,3.8-5.7h9c-0.5,2.5-1.4,4.7-2.6,6.6c-1.2,1.9-2.7,3.6-4.4,4.9
			c-1.7,1.3-3.7,2.3-5.8,3c-2.1,0.7-4.4,1-6.7,1c-3.4,0-6.4-0.6-9-1.8c-2.6-1.2-4.8-2.8-6.6-4.9c-1.8-2.1-3.2-4.6-4.1-7.6
			c-0.9-2.9-1.4-6.2-1.4-9.7c0-3.2,0.5-6.3,1.5-9.2c1-2.9,2.4-5.5,4.2-7.7c1.8-2.2,4-3.9,6.6-5.2c2.6-1.3,5.5-1.9,8.7-1.9
			c3.4,0,6.5,0.7,9.2,2.2c2.7,1.5,4.9,3.5,6.7,5.9c1.8,2.5,3.1,5.3,3.9,8.5c0.8,3.2,1,6.5,0.6,9.9H1180z M1202.3,262.9
			c-0.1-1.6-0.4-3.1-1-4.6c-0.5-1.5-1.3-2.7-2.2-3.8c-0.9-1.1-2-2-3.3-2.6c-1.3-0.7-2.8-1-4.4-1c-1.7,0-3.2,0.3-4.6,0.9
			c-1.4,0.6-2.5,1.5-3.5,2.6c-1,1.1-1.8,2.4-2.3,3.8c-0.6,1.5-0.9,3.1-1,4.8H1202.3z"/>
		<path fill="#FFFFFF" d="M1225.3,275.1c0.3,2.9,1.3,5,3.2,6.2c1.8,1.2,4,1.8,6.6,1.8c0.9,0,1.9-0.1,3.1-0.2
			c1.1-0.1,2.2-0.4,3.2-0.8c1-0.4,1.8-1,2.5-1.8s0.9-1.8,0.9-3.1c-0.1-1.3-0.5-2.3-1.3-3.2c-0.8-0.8-1.9-1.5-3.2-2
			c-1.3-0.5-2.8-0.9-4.5-1.3c-1.7-0.4-3.4-0.7-5.1-1.1c-1.8-0.4-3.5-0.9-5.1-1.5c-1.6-0.6-3.1-1.4-4.4-2.4c-1.3-1-2.4-2.3-3.1-3.8
			c-0.8-1.6-1.2-3.5-1.2-5.8c0-2.5,0.6-4.5,1.7-6.2c1.1-1.7,2.6-3,4.3-4c1.8-1,3.7-1.7,5.9-2.2c2.1-0.4,4.2-0.6,6.1-0.6
			c2.2,0,4.4,0.2,6.4,0.7c2,0.5,3.9,1.3,5.5,2.4c1.6,1.1,3,2.6,4.1,4.4c1.1,1.8,1.8,3.9,2,6.5h-9.9c-0.4-2.4-1.5-4-3.1-4.8
			c-1.6-0.8-3.5-1.2-5.6-1.2c-0.7,0-1.5,0.1-2.4,0.2c-0.9,0.1-1.8,0.3-2.6,0.7c-0.8,0.3-1.5,0.8-2,1.4c-0.6,0.6-0.8,1.4-0.8,2.4
			c0,1.2,0.4,2.2,1.2,3c0.8,0.8,1.9,1.4,3.2,1.9c1.3,0.5,2.8,0.9,4.5,1.3c1.7,0.4,3.4,0.7,5.2,1.1c1.7,0.4,3.4,0.9,5.1,1.5
			c1.7,0.6,3.2,1.4,4.5,2.4c1.3,1,2.4,2.3,3.2,3.8c0.8,1.5,1.2,3.4,1.2,5.6c0,2.7-0.6,5-1.8,6.9c-1.2,1.9-2.7,3.4-4.6,4.6
			c-1.9,1.2-3.9,2-6.2,2.6c-2.3,0.5-4.5,0.8-6.8,0.8c-2.7,0-5.3-0.3-7.6-1c-2.3-0.6-4.3-1.6-6-2.9c-1.7-1.3-3-3-4-4.9
			c-1-2-1.5-4.3-1.5-7H1225.3z"/>
	</g>
</g>
</svg>
