<?xml version="1.0" encoding="utf-8"?>
<!-- Generator: Adobe Illustrator 16.0.4, SVG Export Plug-In . SVG Version: 6.00 Build 0)  -->
<!DOCTYPE svg PUBLIC "-//W3C//DTD SVG 1.1//EN" "http://www.w3.org/Graphics/SVG/1.1/DTD/svg11.dtd">
<svg version="1.1" id="Layer_1" xmlns="http://www.w3.org/2000/svg" xmlns:xlink="http://www.w3.org/1999/xlink" x="0px" y="0px"
	 width="131.987px" height="40px" viewBox="294.008 89.5 131.987 40" enable-background="new 294.008 89.5 131.987 40"
	 xml:space="preserve">
<g>
	<g>
		<path fill="#646569" d="M384.842,118.627c-1.046,2.006-2.341,3.161-4.379,3.161c-3.002,0-5.07-2.914-5.07-7.12
			c0-4.316,2.068-7.203,5.151-7.203c2.729,0,3.665,2.035,4.355,3.464v-3.134h2.258v13.689c0,3.574-2.176,5.608-5.95,5.608
			c-3.112,0-5.234-1.429-5.234-3.49c0-0.331-0.011-0.767,0.153-1.238l1.991,0.904c-0.186,1.414,1.467,1.928,3.09,1.928
			c2.259,0,3.636-1.072,3.636-2.888L384.842,118.627 M377.845,114.283c0,2.419,0.331,3.711,1.24,4.646
			c0.55,0.577,1.294,0.88,2.23,0.88c2.232,0,3.554-1.814,3.554-4.839c0-3.491-1.461-5.663-3.773-5.663
			C379.028,109.307,377.845,111.121,377.845,114.283"/>
		<path fill="#646569" d="M401.434,114.448c0,4.48-2.534,7.34-6.419,7.34c-3.692,0-6.253-2.969-6.253-7.258
			c0-4.15,2.59-7.093,6.28-7.093C398.789,107.438,401.434,110.324,401.434,114.448 M391.186,114.668c0,3.271,1.46,5.141,4.051,5.141
			c2.341,0,3.773-1.952,3.773-5.196c0-3.711-1.737-5.222-3.995-5.222C392.646,109.39,391.186,111.231,391.186,114.668"/>
		<polygon fill="#646569" points="401.08,107.794 403.332,107.794 406.722,118.159 410.029,107.794 412.251,107.794 
			407.974,121.376 405.5,121.376 		"/>
		<polygon fill="#646569" points="331.707,93.102 335.538,92.976 331.312,95.433 330.697,99.127 328.74,96.929 324.554,99.33 
			327.572,95.557 325.6,93.304 329.419,93.178 332.341,89.5 		"/>
		<path fill="#646569" d="M324.327,94.411c-15.216,1.975-26.481,7.123-30.319,11.518c3.996-3.715,16.847-8.025,31.365-10.28"/>
		<path fill="#646569" d="M330.656,101.24c-0.393,0-0.854,0.031-1.214,0.25c-0.887,0.561-0.821,2.4-0.821,3.274v8.107
			c0,2.465-0.131,5.271-2.103,7.111c-1.74,1.621-4.009,2.059-6.375,2.059c-1.511,0-2.76-0.156-4.206-0.656
			c-3.844-1.342-5.027-3.648-5.027-7.391V101.24h-2.563v-0.624h10.087v0.624h-2.562v12.1c0,1.808-0.165,3.866,1.019,5.426
			c1.149,1.527,2.627,2.027,4.567,2.027c2.168,0,4.5-0.843,5.552-2.745c0.888-1.621,0.822-3.557,0.822-5.332v-8.232
			c0-1.903-0.067-3.275-2.398-3.275h-0.625v-0.593h6.078v0.624H330.656"/>
		<path fill="#646569" d="M357.4,121.376v-0.594h2.457l-2.202-5.987h-5.873l-1.277,3.462c-0.192,0.5-0.319,1.062-0.319,1.592
			c0,1.06,1.596,0.934,2.329,0.934v0.594h-6.127v-0.594h0.735c1.531,0,2.105-1.061,2.584-2.339l6.735-18.398h0.446l8.075,20.737
			h2.043v0.594H357.4 M354.75,106.687l-2.712,7.454h5.395L354.75,106.687z"/>
		<path fill="#646569" d="M371.027,121.747c-1.27,0-2.327-1.077-2.327-2.373c0-1.294,1.058-2.372,2.327-2.372
			s2.294,1.078,2.294,2.372C373.321,120.67,372.297,121.747,371.027,121.747"/>
		<path fill="#646569" d="M339.548,121.874c-1.886,0-3.352-0.53-5.108-1.154c-0.164-0.062-0.358-0.124-0.521-0.186
			c-0.358-0.156-0.977-0.562-1.367-0.562c-0.812,0-0.651,0.779-0.977,1.153l-0.031,0.25h-0.554l-0.163-7.859h0.617
			c0.522,2.059,1.172,3.649,2.669,5.208c1.464,1.527,3.189,2.524,5.403,2.524c2.44,0,4.62-1.558,4.62-4.021
			c0-2.807-2.376-3.461-4.751-4.021l-1.889-0.438c-1.69-0.375-3.349-0.687-4.684-1.809c-0.521-0.437-0.88-0.904-1.205-1.498
			c-0.553-0.996-0.781-2.088-0.781-3.21c0-3.836,3.221-6.206,7.029-6.206c1.756,0,3.221,0.529,4.818,1.216
			c0.454,0.188,1.007,0.5,1.529,0.5c0.748,0,0.781-0.654,0.813-1.216h0.619v6.703h-0.651c-0.651-3.366-2.963-6.579-6.868-6.579
			c-2.212,0-4.522,1.279-4.522,3.618c0,2.464,2.603,3.025,4.653,3.43c1.106,0.219,2.213,0.374,3.287,0.624
			c3.58,0.81,5.533,2.962,5.533,6.517C347.066,119.005,343.812,121.874,339.548,121.874"/>
		<path fill="#646569" d="M335.629,127.071c-0.219,0.269-0.312,0.37-0.524,0.516c-0.475,0.342-1.092,0.537-1.701,0.537
			c-1.654,0-2.73-1.03-2.73-2.614c0-1.808,1.061-2.935,2.792-2.935c0.866,0,1.561,0.438,1.943,0.937l-0.454,0.582
			c-0.359-0.53-0.896-0.864-1.527-0.864c-1.209,0-1.935,0.836-1.935,2.236c0,1.271,0.717,2.02,1.928,2.02
			c0.803,0,1.194-0.378,1.435-0.639v-0.85h-2.193v-0.646h2.966V127.071"/>
		<path fill="#646569" d="M340.386,126.187c0,1.183-0.717,1.938-1.816,1.938c-1.046,0-1.771-0.783-1.771-1.915
			c0-1.099,0.733-1.876,1.779-1.876C339.637,124.333,340.386,125.097,340.386,126.187 M337.484,126.244
			c0,0.863,0.412,1.359,1.146,1.359c0.665,0,1.07-0.518,1.07-1.374c0-0.98-0.491-1.379-1.131-1.379
			C337.896,124.851,337.484,125.336,337.484,126.244"/>
		<polygon fill="#646569" points="341.067,124.537 341.697,124.537 342.651,127.274 343.579,124.537 344.203,124.537 
			343.002,128.124 342.307,128.124 		"/>
		<path fill="#646569" d="M348.233,127.095c-0.147,0.304-0.232,0.42-0.404,0.581c-0.327,0.297-0.741,0.448-1.208,0.448
			c-1.024,0-1.711-0.768-1.711-1.895c0-1.119,0.712-1.896,1.741-1.896c0.945,0,1.639,0.726,1.639,1.708
			c0,0.108-0.008,0.232-0.017,0.385h-2.682c0.061,1.212,0.941,1.212,1.084,1.212c0.74,0,0.951-0.566,1.037-0.784L348.233,127.095
			 M347.61,125.939c-0.062-1.112-0.89-1.112-0.989-1.112c-0.611,0-0.977,0.399-1.017,1.112H347.61z"/>
		<path fill="#646569" d="M350.05,125.232c0.196-0.333,0.462-0.782,1.024-0.782c0.076,0,0.17,0.006,0.272,0.014v0.633
			c-0.164-0.022-0.241-0.03-0.334-0.03c-0.571,0-0.969,0.385-0.969,0.93v2.128h-0.647v-3.587h0.654V125.232"/>
		<path fill="#646569" d="M355.474,128.124h-0.654v-2.309c0-0.539-0.298-0.851-0.798-0.851c-0.567,0-0.975,0.37-0.975,0.894v2.266
			h-0.654v-3.587h0.654v0.639c0.359-0.487,0.78-0.733,1.256-0.733c0.695,0,1.171,0.479,1.171,1.19V128.124"/>
		<path fill="#646569" d="M361.966,128.124h-0.647v-2.316c0-0.531-0.287-0.85-0.758-0.85c-0.576,0-0.873,0.355-0.873,1.047v2.119
			h-0.655v-2.172c0-0.69-0.234-1.001-0.757-1.001c-0.514,0-0.873,0.393-0.873,0.942v2.23h-0.647v-3.587h0.647v0.661
			c0.311-0.524,0.656-0.756,1.13-0.756c0.555,0,0.866,0.275,1.078,0.784c0.217-0.312,0.538-0.784,1.201-0.784
			c0.671,0,1.154,0.5,1.154,1.169V128.124"/>
		<path fill="#646569" d="M366.39,127.095c-0.149,0.304-0.234,0.42-0.405,0.581c-0.329,0.297-0.742,0.448-1.208,0.448
			c-1.024,0-1.711-0.768-1.711-1.895c0-1.119,0.71-1.896,1.74-1.896c0.944,0,1.639,0.726,1.639,1.708
			c0,0.108-0.007,0.232-0.017,0.385h-2.683c0.062,1.212,0.943,1.212,1.084,1.212c0.74,0,0.952-0.566,1.037-0.784L366.39,127.095
			 M365.766,125.939c-0.063-1.112-0.89-1.112-0.989-1.112c-0.611,0-0.978,0.399-1.018,1.112H365.766z"/>
		<path fill="#646569" d="M370.633,128.124h-0.653v-2.309c0-0.539-0.297-0.851-0.796-0.851c-0.57,0-0.977,0.37-0.977,0.894v2.266
			h-0.654v-3.587h0.654v0.639c0.36-0.487,0.782-0.733,1.256-0.733c0.695,0,1.17,0.479,1.17,1.19V128.124"/>
		<path fill="#646569" d="M372.797,123.056v1.374h0.818v0.507h-0.818v2.171c0,0.378,0.078,0.496,0.343,0.496
			c0.094,0,0.194-0.016,0.43-0.066v0.509c-0.289,0.058-0.454,0.078-0.595,0.078c-0.6,0-0.833-0.181-0.833-0.652v-2.535h-0.695
			v-0.507h0.695v-0.938L372.797,123.056"/>
		<polygon fill="#646569" points="393.054,122.888 394.247,122.888 394.247,128.124 393.553,128.124 393.553,123.469 
			392.03,128.124 391.274,128.124 389.745,123.469 389.745,128.124 389.052,128.124 389.052,122.888 390.253,122.888 
			391.655,127.151 		"/>
		<path fill="#646569" d="M395.479,125.147c0.141-0.32,0.381-0.821,1.583-0.821c1.42,0,1.42,0.705,1.42,1.061l-0.01,1.758
			c0,0.443,0.024,0.479,0.306,0.486v0.415c-0.202,0.058-0.306,0.078-0.414,0.078c-0.504,0-0.544-0.392-0.544-0.703
			c-0.227,0.261-0.624,0.703-1.297,0.703c-0.677,0-1.192-0.501-1.192-1.17c0-0.282,0.134-0.581,0.352-0.789
			c0.272-0.263,0.652-0.4,1.277-0.459c0.555-0.058,0.625-0.078,0.868-0.312c-0.009-0.436-0.164-0.544-0.733-0.544
			c-0.593,0-0.898,0.159-1.079,0.565L395.479,125.147 M397.828,125.853c-0.274,0.195-0.351,0.225-0.797,0.297
			c-0.444,0.072-0.646,0.16-0.82,0.349c-0.123,0.131-0.195,0.29-0.195,0.465c0,0.394,0.298,0.668,0.727,0.668
			c0.266,0,0.539-0.108,0.74-0.29c0.259-0.233,0.346-0.458,0.346-0.908V125.853z"/>
		<path fill="#646569" d="M402.267,122.785h0.655v5.237h-0.646v-0.835c-0.243,0.398-0.453,0.937-1.237,0.937
			c-0.887,0-1.448-0.74-1.448-1.896c0-1.111,0.586-1.873,1.444-1.873c0.756,0,1.028,0.517,1.231,0.93V122.785 M400.271,126.315
			c0,0.813,0.344,1.293,0.927,1.293c0.249,0,0.515-0.101,0.693-0.275c0.268-0.232,0.375-0.574,0.375-1.111
			c0-1.366-0.989-1.366-1.062-1.366C400.588,124.878,400.271,125.378,400.271,126.315"/>
		<path fill="#646569" d="M407.347,127.095c-0.148,0.304-0.233,0.42-0.405,0.581c-0.328,0.297-0.74,0.448-1.209,0.448
			c-1.025,0-1.71-0.768-1.71-1.895c0-1.119,0.711-1.896,1.739-1.896c0.946,0,1.64,0.726,1.64,1.708c0,0.108-0.01,0.232-0.017,0.385
			h-2.683c0.064,1.212,0.943,1.212,1.085,1.212c0.741,0,0.95-0.566,1.036-0.784L407.347,127.095 M406.723,125.939
			c-0.064-1.112-0.89-1.112-0.99-1.112c-0.609,0-0.976,0.399-1.015,1.112H406.723z"/>
		<polygon fill="#646569" points="410.359,122.888 413.86,122.888 413.65,123.505 411.121,123.505 411.121,125.11 413.439,125.11 
			413.439,125.735 411.121,125.735 411.121,127.5 413.658,127.5 413.883,128.124 410.359,128.124 		"/>
		<path fill="#646569" d="M414.781,125.176c0.141-0.318,0.381-0.821,1.584-0.821c1.42,0,1.42,0.706,1.42,1.062l-0.011,1.758
			c0,0.442,0.026,0.479,0.308,0.486v0.413c-0.202,0.059-0.308,0.08-0.415,0.08c-0.508,0-0.546-0.393-0.546-0.704
			c-0.227,0.262-0.624,0.704-1.294,0.704c-0.68,0-1.194-0.501-1.194-1.17c0-0.281,0.133-0.581,0.352-0.79
			c0.271-0.263,0.653-0.399,1.279-0.458c0.554-0.059,0.625-0.079,0.863-0.312c-0.006-0.437-0.162-0.545-0.731-0.545
			c-0.595,0-0.896,0.16-1.075,0.566L414.781,125.176 M417.127,125.881c-0.271,0.196-0.35,0.225-0.794,0.297
			c-0.444,0.073-0.647,0.161-0.819,0.35c-0.126,0.131-0.193,0.29-0.193,0.465c0,0.393,0.295,0.668,0.726,0.668
			c0.265,0,0.538-0.108,0.739-0.291c0.259-0.231,0.342-0.458,0.342-0.907V125.881z"/>
		<path fill="#646569" d="M419.438,126.846c0.062,0.544,0.429,0.813,1.106,0.813c0.53,0,0.929-0.233,0.929-0.538
			c0-0.312-0.288-0.485-1.004-0.602c-0.751-0.132-1.438-0.363-1.438-1.119c0-0.624,0.61-1.054,1.499-1.054
			c1.113,0,1.449,0.727,1.481,0.967l-0.461,0.289c-0.131-0.514-0.468-0.754-1.038-0.754c-0.489,0-0.881,0.218-0.881,0.493
			c0,0.291,0.298,0.458,0.999,0.566c0.173,0.03,1.476,0.154,1.49,1.119c0,0.029,0,1.126-1.652,1.126
			c-0.462,0-0.837-0.108-1.118-0.32c-0.226-0.166-0.319-0.319-0.438-0.696L419.438,126.846"/>
		<path fill="#646569" d="M422.849,124.524h0.616l1.008,2.802l0.896-2.802h0.626l-1.243,3.725l-0.062,0.204
			c-0.197,0.61-0.335,1.047-1.218,1.047c-0.108,0-0.234-0.009-0.443-0.03v-0.509c0.226,0.036,0.319,0.044,0.428,0.044
			c0.415,0,0.518-0.109,0.742-0.807L422.849,124.524"/>
	</g>
</g>
</svg>
